<?xml version="1.0" encoding="UTF-8" standalone="no"?>
<!-- Generator: Adobe Illustrator 16.0.4, SVG Export Plug-In . SVG Version: 6.00 Build 0)  -->

<svg
   xmlns:ns="&amp;ns_sfw;"
   xmlns:dc="http://purl.org/dc/elements/1.1/"
   xmlns:cc="http://creativecommons.org/ns#"
   xmlns:rdf="http://www.w3.org/1999/02/22-rdf-syntax-ns#"
   xmlns:svg="http://www.w3.org/2000/svg"
   xmlns="http://www.w3.org/2000/svg"
   xmlns:sodipodi="http://sodipodi.sourceforge.net/DTD/sodipodi-0.dtd"
   xmlns:inkscape="http://www.inkscape.org/namespaces/inkscape"
   version="1.1"
   id="Layer_1"
   x="0px"
   y="0px"
   width="44.211px"
   height="42px"
   viewBox="0 0 44.211 42"
   enable-background="new 0 0 44.211 42"
   xml:space="preserve"
   inkscape:version="0.91 r13725"
   sodipodi:docname="icons-realestate.svg"><defs
     id="defs3561" /><sodipodi:namedview
     pagecolor="#ffffff"
     bordercolor="#666666"
     borderopacity="1"
     objecttolerance="10"
     gridtolerance="10"
     guidetolerance="10"
     inkscape:pageopacity="0"
     inkscape:pageshadow="2"
     inkscape:window-width="1280"
     inkscape:window-height="751"
     id="namedview3559"
     showgrid="false"
     inkscape:zoom="5.6190476"
     inkscape:cx="22.105499"
     inkscape:cy="21"
     inkscape:window-x="0"
     inkscape:window-y="1"
     inkscape:window-maximized="1"
     inkscape:current-layer="Layer_1" /><metadata
     id="metadata3553"><ns:sfw><ns:slices /><ns:sliceSourceBounds
         width="1387.212"
         height="339.173"
         bottomLeftOrigin="true"
         y="-586"
         x="-147" /></ns:sfw><rdf:RDF><cc:Work
         rdf:about=""><dc:format>image/svg+xml</dc:format><dc:type
           rdf:resource="http://purl.org/dc/dcmitype/StillImage" /></cc:Work></rdf:RDF></metadata><g
     id="g3555"><path
       fill="#20c3c4"
       d="M18.158,26.211h9.474v3.948h-9.474V26.211z M2.367,25.421h3.158v5.525H2.367V25.421z M7.895,25.421h3.158   v5.525H7.895V25.421z M34.736,23.843h7.105v8.685h-7.105V23.843z M18.158,18.316h9.474v3.947h-9.474V18.316z M2.367,15.947h3.158   v5.526H2.367V15.947z M7.895,15.947h3.158v5.526H7.895V15.947z M34.736,12.001h7.105v8.684h-7.105V12.001z M18.158,10.422h9.474   v3.947h-9.474V10.422z M18.158,2.526h9.474v3.947h-9.474V2.526z M15.852,0l-0.062,37.264h-2.368V12.791H0V42h44.211V8.842H32.369   v28.422H30L30.063,0H15.852z"
       id="path3557"
       style="fill:#ff0000" /></g></svg>