<?xml version="1.0" encoding="UTF-8" standalone="no"?>
<!-- Generator: Adobe Illustrator 16.0.4, SVG Export Plug-In . SVG Version: 6.00 Build 0)  -->

<svg
   xmlns:ns="&amp;ns_sfw;"
   xmlns:dc="http://purl.org/dc/elements/1.1/"
   xmlns:cc="http://creativecommons.org/ns#"
   xmlns:rdf="http://www.w3.org/1999/02/22-rdf-syntax-ns#"
   xmlns:svg="http://www.w3.org/2000/svg"
   xmlns="http://www.w3.org/2000/svg"
   xmlns:xlink="http://www.w3.org/1999/xlink"
   xmlns:sodipodi="http://sodipodi.sourceforge.net/DTD/sodipodi-0.dtd"
   xmlns:inkscape="http://www.inkscape.org/namespaces/inkscape"
   version="1.1"
   id="Layer_1"
   x="0px"
   y="0px"
   width="43.117px"
   height="42px"
   viewBox="0 0 43.117 42"
   enable-background="new 0 0 43.117 42"
   xml:space="preserve"
   inkscape:version="0.91 r13725"
   sodipodi:docname="icons-art.svg"><defs
     id="defs5625" /><sodipodi:namedview
     pagecolor="#ffffff"
     bordercolor="#666666"
     borderopacity="1"
     objecttolerance="10"
     gridtolerance="10"
     guidetolerance="10"
     inkscape:pageopacity="0"
     inkscape:pageshadow="2"
     inkscape:window-width="1280"
     inkscape:window-height="751"
     id="namedview5623"
     showgrid="false"
     inkscape:zoom="5.6190476"
     inkscape:cx="21.5585"
     inkscape:cy="21"
     inkscape:window-x="0"
     inkscape:window-y="1"
     inkscape:window-maximized="1"
     inkscape:current-layer="Layer_1" /><metadata
     id="metadata5605"><ns:sfw><ns:slices /><ns:sliceSourceBounds
         width="1387.212"
         height="339.173"
         bottomLeftOrigin="true"
         y="-586"
         x="-147" /></ns:sfw><rdf:RDF><cc:Work
         rdf:about=""><dc:format>image/svg+xml</dc:format><dc:type
           rdf:resource="http://purl.org/dc/dcmitype/StillImage" /></cc:Work></rdf:RDF></metadata><g
     id="g5607"><g
       id="g5609"><defs
         id="defs5611"><rect
           id="SVGID_19_"
           width="43.117"
           height="42" /></defs><clipPath
         id="SVGID_2_"><use
           xlink:href="#SVGID_19_"
           overflow="visible"
           id="use5615" /></clipPath><path
         clip-path="url(#SVGID_2_)"
         fill="#20c3c4"
         d="M38.197,19.686c-1.236,0-2.237-1.002-2.237-2.238    c0-1.234,1.001-2.236,2.237-2.236c1.233,0,2.236,1.002,2.236,2.236C40.434,18.684,39.431,19.686,38.197,19.686 M34.17,28.634    c-4.475,0-5.369-3.579-5.369-3.579h10.736C39.537,25.055,38.644,28.634,34.17,28.634 M27.906,17.447    c0-1.234,1.002-2.236,2.236-2.236c1.236,0,2.237,1.002,2.237,2.236c0,1.236-1.001,2.238-2.237,2.238    C28.908,19.686,27.906,18.684,27.906,17.447 M41.328,8.947c-1.789,0-3.579,1.789-7.158,1.789s-5.369-1.789-7.159-1.789    c-0.843,0-1.79,0.896-1.79,1.789v12.527c0,3.966,1.79,8.948,8.949,8.948c7.158,0,8.947-4.982,8.947-8.948V10.736    C43.117,9.843,42.172,8.947,41.328,8.947"
         id="path5617" /><path
         clip-path="url(#SVGID_2_)"
         fill="#20c3c4"
         d="M17.615,6.264c1.236,0,2.238,1.001,2.238,2.237    c0,1.234-1.002,2.237-2.238,2.237c-1.234,0-2.236-1.003-2.236-2.237C15.379,7.265,16.381,6.264,17.615,6.264 M20.242,23.193    c0.441,0.047,0.907,0.07,1.4,0.07c0.643,0,1.229-0.03,1.79-0.111v-5.256h-7.159c0,0,0.895-3.579,5.369-3.579    c0.896,0,1.246,0.133,1.79,0.335v-3.913c0-1.642,0.653-3.012,1.789-3.579c1.79-0.896,2.511-0.534,3.579,0l1.789,0.894V1.791    c0-0.896-0.945-1.79-1.789-1.79c-1.789,0-3.579,1.79-7.158,1.79s-5.369-1.79-7.158-1.79V0c-0.844,0-1.789,0.895-1.789,1.79v12.525    c0,1.593,0.299,3.343,1.105,4.873c0.318,0.134,0.634,0.274,0.945,0.433C16.912,20.725,18.742,21.921,20.242,23.193"
         id="path5619" /><path
         clip-path="url(#SVGID_2_)"
         fill="#20c3c4"
         d="M15.492,24.719c0.262,0,0.525,0.06,0.773,0.187    c0.84,0.426,1.173,1.454,0.746,2.292c-0.301,0.592-0.9,0.934-1.521,0.934c-0.26,0-0.525-0.062-0.773-0.187    c-0.838-0.429-1.172-1.455-0.746-2.295C14.273,25.058,14.871,24.719,15.492,24.719 M17.598,30.559    c0.301-0.592,0.898-0.932,1.521-0.933c0.261,0,0.524,0.061,0.772,0.186c0.84,0.429,1.174,1.456,0.746,2.296    c-0.301,0.591-0.899,0.931-1.521,0.931c-0.261,0-0.524-0.06-0.772-0.187C17.504,32.424,17.17,31.399,17.598,30.559 M12.148,24.72    c-0.303,0.592-0.901,0.934-1.521,0.934c-0.262,0-0.525-0.06-0.773-0.187c-0.84-0.428-1.174-1.454-0.745-2.295    c0.301-0.59,0.899-0.93,1.521-0.93c0.26,0,0.524,0.059,0.772,0.186C12.241,22.855,12.575,23.882,12.148,24.72 M10.688,36.611    c-0.361,0.709-1.081,1.117-1.826,1.117c-0.312,0-0.63-0.07-0.928-0.223c-1.006-0.512-1.406-1.745-0.895-2.754    c0.362-0.709,1.081-1.118,1.825-1.118c0.313,0,0.63,0.072,0.929,0.224C10.799,34.371,11.2,35.604,10.688,36.611 M6.034,26.201    c-0.301,0.593-0.899,0.933-1.522,0.933c-0.26,0-0.523-0.06-0.771-0.187c-0.84-0.428-1.174-1.453-0.746-2.293    c0.301-0.593,0.898-0.933,1.52-0.933c0.262,0,0.525,0.061,0.773,0.187C6.127,24.336,6.463,25.362,6.034,26.201 M8.735,19.45    c-3.931,0-7.156,1.969-8.019,3.661c-1.238,2.432-0.951,4.876,1.48,6.113c2.432,1.238,3.339,2.466,2.41,4.29    c-1.238,2.432-0.344,5.185,2.089,6.422C9.534,41.383,12.104,42,14.332,42c3.975,0,6.861-1.964,8.249-4.69    c3.716-7.297-1.126-12.824-8.421-16.54C12.309,19.827,10.455,19.45,8.735,19.45"
         id="path5621" /></g></g><path
     style="fill:#ff0000"
     d="M 12.003262,41.687847 C 10.484307,41.412817 8.5005323,40.740023 7.0299487,40.001156 5.8591914,39.412932 4.679213,38.194396 4.368407,37.252644 4.063335,36.328267 4.2348484,34.430315 4.7202376,33.359321 5.4253469,31.803523 4.8614608,30.702444 2.7174685,29.44859 2.0856708,29.079101 1.3617056,28.560636 1.1086569,28.296447 0.05668491,27.19816 -0.17125927,25.606762 0.4757171,23.877563 1.6469372,20.747196 6.6652672,18.847284 11.21867,19.81034 c 2.614482,0.552969 6.823592,3.057012 9.254237,5.505441 3.426711,3.451781 4.182358,7.405206 2.212364,11.574708 -0.825684,1.747562 -2.211974,3.146661 -3.968206,4.004867 -2.156871,1.053984 -4.041192,1.276408 -6.713803,0.792491 z M 9.5781994,37.6288 c 0.7995676,-0.338422 1.2100356,-0.858819 1.3191676,-1.672464 0.32789,-2.444603 -3.0140121,-3.288896 -3.9692138,-1.002777 -0.3218633,0.770328 -0.1440239,1.570114 0.49014,2.204278 0.4422173,0.442218 0.6800197,0.555387 1.4480418,0.689114 0.076555,0.01333 0.3968938,-0.08484 0.7118644,-0.218151 z M 20.140637,32.750704 c 1.357444,-1.099572 0.686876,-3.146852 -1.030721,-3.146852 -0.942818,0 -1.751416,0.82552 -1.751416,1.788069 0,1.334457 1.754388,2.191292 2.782137,1.358783 z m -3.947525,-4.74157 c 0.730333,-0.305153 0.987422,-0.742102 0.987422,-1.678224 0,-0.571828 -0.105153,-0.796225 -0.547553,-1.16848 -0.350359,-0.294808 -0.762039,-0.460735 -1.143125,-0.460735 -0.381086,0 -0.792765,0.165927 -1.143125,0.460735 -0.4424,0.372255 -0.547553,0.596652 -0.547553,1.16848 0,0.921133 0.254031,1.368657 0.948335,1.670675 0.71242,0.309898 0.721859,0.309947 1.445599,0.0075 z m -10.5427353,-1.3316 c 0.4776194,-0.426752 0.5771528,-0.644733 0.5771528,-1.263975 0,-1.778659 -2.4012904,-2.425276 -3.2086471,-0.864021 -0.496161,0.95947 -0.2585803,1.90239 0.5962108,2.366268 0.7560954,0.410318 1.3928107,0.335778 2.0352835,-0.238272 z m 5.7391963,-1.183568 c 1.645168,-0.780683 1.082287,-3.290402 -0.735603,-3.279839 -1.5985859,0.0093 -2.4082384,1.922951 -1.2567281,2.970352 0.7012231,0.637825 1.1526381,0.707948 1.9923311,0.309487 z"
     id="path5627"
     inkscape:connector-curvature="0" /><path
     style="fill:#ff0000"
     d="m 19.730206,22.678551 c -0.84293,-0.70618 -3.457778,-2.352975 -4.731602,-2.979896 -1.124566,-0.553464 -1.225912,-0.65305 -1.552267,-1.525314 -0.613338,-1.639292 -0.712236,-3.016637 -0.713611,-9.9384035 -0.0012,-6.0864958 0.02918,-6.8118897 0.301929,-7.2076271 0.745477,-1.0816187 1.533116,-1.14215808 3.752165,-0.28839819 3.75343,1.44410009 5.818054,1.47020739 9.372609,0.11851678 2.034757,-0.77375694 2.997309,-0.88087234 3.591378,-0.39965821 0.704792,0.57090422 0.777185,0.97084072 0.777185,4.29361892 l 0,3.2086877 L 29.069185,7.254615 C 28.266842,6.8666106 27.400176,6.5491525 27.143261,6.5491525 c -0.731383,0 -2.006841,0.4967791 -2.536568,0.9879696 -0.971592,0.9009116 -1.098437,1.3705239 -1.166675,4.3193399 -0.05675,2.452501 -0.0928,2.715289 -0.358326,2.612363 -1.287323,-0.499008 -3.58686,-0.11817 -4.950188,0.819824 -0.77395,0.532491 -1.8408,1.933994 -1.8408,2.418227 0,0.183095 0.751591,0.232107 3.559322,0.232107 l 3.559322,0 0,2.580509 0,2.580508 -1.588041,0 c -1.410067,0 -1.644419,-0.04723 -2.091101,-0.421449 z M 18.597387,10.556946 c 0.858074,-0.443728 1.252639,-1.1026689 1.252639,-2.0919633 0,-0.7645641 -0.08012,-0.9637444 -0.594595,-1.4782213 -1.055086,-1.0550859 -2.370634,-1.0475225 -3.307065,0.019013 -0.446735,0.5088033 -0.547493,0.7788927 -0.547493,1.4675994 0,0.9563877 0.308813,1.5030144 1.133059,2.0056154 0.669254,0.408091 1.373589,0.4347 2.063455,0.07796 z"
     id="path5633"
     inkscape:connector-curvature="0" /><path
     style="fill:#ff0000"
     d="M 31.861087,31.929514 C 29.42238,31.462725 27.286046,29.942432 26.348713,28.006707 25.415007,26.078474 25.366975,25.565988 25.366975,17.531971 l 0,-7.450876 0.520208,-0.5202084 c 0.701443,-0.7014424 1.397923,-0.6783862 3.446247,0.1140843 3.923395,1.5179121 5.762339,1.5179121 9.685734,0 C 41.053033,8.888093 41.693156,8.8659708 42.4329,9.556995 l 0.552719,0.516317 0,7.289901 c 0,4.214266 -0.07664,7.694017 -0.181651,8.247742 -0.575483,3.03451 -2.691902,5.357496 -5.602247,6.149037 -1.336374,0.363461 -3.90196,0.444898 -5.340634,0.169522 z m 5.073684,-3.818451 c 0.440467,-0.229299 0.992323,-0.58968 1.226348,-0.800848 0.443853,-0.400504 1.443144,-1.861182 1.443144,-2.109464 0,-0.07872 -2.442585,-0.143124 -5.427966,-0.143124 -2.985381,0 -5.427966,0.04323 -5.427966,0.09607 0,0.381201 0.836494,1.585077 1.518481,2.185385 1.178073,1.036982 1.963717,1.272853 4.087451,1.227167 1.471732,-0.03166 1.918229,-0.110421 2.580508,-0.455189 z M 31.38404,19.35815 c 1.158368,-0.706238 1.376235,-2.277675 0.465792,-3.359676 -1.82722,-2.171528 -5.170467,0.31612 -3.585566,2.667954 0.731041,1.084792 2.009961,1.368356 3.119774,0.691722 z m 7.880999,0.08491 c 0.651117,-0.336706 1.227492,-1.238574 1.228389,-1.922091 8.9e-4,-0.67943 -0.470893,-1.635792 -0.967462,-1.961156 -1.101547,-0.721762 -2.480491,-0.400092 -3.25502,0.759307 -1.260549,1.886926 0.942079,4.185077 2.994093,3.12394 z"
     id="path5635"
     inkscape:connector-curvature="0" /></svg>