<?xml version="1.0" encoding="UTF-8" standalone="no"?>
<!-- Generator: Adobe Illustrator 16.0.4, SVG Export Plug-In . SVG Version: 6.00 Build 0)  -->

<svg
   xmlns:ns="&amp;ns_sfw;"
   xmlns:dc="http://purl.org/dc/elements/1.1/"
   xmlns:cc="http://creativecommons.org/ns#"
   xmlns:rdf="http://www.w3.org/1999/02/22-rdf-syntax-ns#"
   xmlns:svg="http://www.w3.org/2000/svg"
   xmlns="http://www.w3.org/2000/svg"
   xmlns:xlink="http://www.w3.org/1999/xlink"
   xmlns:sodipodi="http://sodipodi.sourceforge.net/DTD/sodipodi-0.dtd"
   xmlns:inkscape="http://www.inkscape.org/namespaces/inkscape"
   version="1.1"
   id="Layer_1"
   x="0px"
   y="0px"
   width="61.484px"
   height="33.6px"
   viewBox="0 0 61.484 33.6"
   enable-background="new 0 0 61.484 33.6"
   xml:space="preserve"
   inkscape:version="0.91 r13725"
   sodipodi:docname="icons-budget.svg"><defs
     id="defs5534" /><sodipodi:namedview
     pagecolor="#ffffff"
     bordercolor="#666666"
     borderopacity="1"
     objecttolerance="10"
     gridtolerance="10"
     guidetolerance="10"
     inkscape:pageopacity="0"
     inkscape:pageshadow="2"
     inkscape:window-width="1280"
     inkscape:window-height="751"
     id="namedview5532"
     showgrid="false"
     inkscape:zoom="5.041962"
     inkscape:cx="30.742001"
     inkscape:cy="16.799999"
     inkscape:window-x="0"
     inkscape:window-y="1"
     inkscape:window-maximized="1"
     inkscape:current-layer="Layer_1" /><metadata
     id="metadata5512"><ns:sfw><ns:slices /><ns:sliceSourceBounds
         width="1387.212"
         height="339.173"
         bottomLeftOrigin="true"
         y="-586"
         x="-147" /></ns:sfw><rdf:RDF><cc:Work
         rdf:about=""><dc:format>image/svg+xml</dc:format><dc:type
           rdf:resource="http://purl.org/dc/dcmitype/StillImage" /></cc:Work></rdf:RDF></metadata><g
     id="g5514"><rect
       x="34.617"
       y="0.155"
       transform="matrix(0.0887 -0.9961 0.9961 0.0887 24.3947 55.088)"
       fill="#20c3c4"
       width="15.372"
       height="28.115"
       id="rect5516" /><g
       id="g5518"><defs
         id="defs5520"><rect
           id="SVGID_21_"
           width="61.484"
           height="33.6" /></defs><clipPath
         id="SVGID_2_"><use
           xlink:href="#SVGID_21_"
           overflow="visible"
           id="use5524" /></clipPath><path
         clip-path="url(#SVGID_2_)"
         fill="#20c3c4"
         d="M56.539,24.212l-30.018-2.679l1.547-17.322l30.017,2.677L56.539,24.212z     M16.158,0l-1.127,12.657c1.883,1.711,3.101,4.145,3.153,6.881c3.079,0.179,5.644,2.205,6.626,4.987l34.574,3.083l2.1-23.567    L16.158,0z"
         id="path5526" /><path
         clip-path="url(#SVGID_2_)"
         fill="#20c3c4"
         d="M18.129,20.442c-0.301,3.977-3.011,7.241-6.695,8.373    c0.791,2.757,3.304,4.784,6.314,4.784c3.645,0,6.6-2.953,6.6-6.598C24.346,23.488,21.592,20.643,18.129,20.442"
         id="path5528" /><path
         clip-path="url(#SVGID_2_)"
         fill="#20c3c4"
         d="M17.293,19.722c0,4.773-3.872,8.645-8.645,8.645    C3.871,28.366,0,24.495,0,19.722c0-4.777,3.871-8.648,8.646-8.648C13.42,11.075,17.293,14.946,17.293,19.722"
         id="path5530" /></g></g><path
     style="fill:#ff0000"
     d="M 6.1876104,27.880844 C 4.6037334,27.374416 3.492659,26.677273 2.3890801,25.497458 -1.5601455,21.275417 -0.15850503,14.44918 5.1695943,11.955861 7.7129099,10.7657 10.895179,11.012696 13.335002,12.58963 c 1.388939,0.897715 2.223385,1.869791 3.065853,3.571525 0.604825,1.221709 0.636163,1.397574 0.636163,3.570039 0,2.183077 -0.02924,2.344819 -0.655348,3.625107 -0.725201,1.482913 -2.096333,2.977872 -3.469047,3.782337 -1.904697,1.116226 -4.6185116,1.415736 -6.7250126,0.742206 z"
     id="path5536"
     inkscape:connector-curvature="0" /><path
     style="fill:#ff0000"
     d="m 41.928122,25.971933 c -8.781304,-0.799096 -16.203485,-1.458214 -16.493737,-1.46471 -0.428793,-0.0096 -0.613118,-0.188427 -0.983195,-0.9539 -0.924868,-1.913014 -3.323117,-3.692714 -5.340843,-3.963347 -0.713418,-0.09569 -0.784563,-0.161769 -0.885295,-0.822257 -0.330122,-2.16457 -1.149937,-3.993603 -2.42028,-5.399721 l -0.690719,-0.764544 0.544795,-6.2020674 c 0.299637,-3.4111371 0.563911,-6.22705109 0.587275,-6.25758638 0.05446,-0.07117724 44.998763,3.93541268 45.082387,4.01889958 0.03448,0.034416 -0.389467,5.1099655 -0.942093,11.2789982 -0.552625,6.169034 -1.004772,11.399198 -1.004772,11.622587 0,0.341175 -0.119005,0.402514 -0.743758,0.383357 -0.409067,-0.01253 -7.928461,-0.676614 -16.709765,-1.475709 z m 14.680101,-1.724436 c 0.0018,-0.02727 0.352658,-3.930708 0.779684,-8.674305 0.427028,-4.743597 0.742094,-8.6590415 0.700148,-8.7009875 C 58.046109,6.8302584 51.693122,6.2330042 43.970307,5.544973 36.247492,4.8569417 29.506441,4.2561503 28.990194,4.2098809 c -0.919215,-0.082386 -0.940666,-0.071402 -1.037076,0.5310172 -0.242871,1.51759 -1.495002,16.6475229 -1.386752,16.7566039 0.162358,0.163607 30.032095,2.897846 30.041857,2.749995 z"
     id="path5538"
     inkscape:connector-curvature="0" /><path
     style="fill:#ff0000"
     d="m 15.351167,33.046729 c -1.515522,-0.629541 -3.272718,-2.414837 -3.654008,-3.712439 -0.105304,-0.358367 0.06632,-0.509823 1.220313,-1.076904 2.556981,-1.25652 4.795713,-4.217441 5.137635,-6.794977 l 0.128333,-0.967422 0.71597,0.126441 c 1.945837,0.343637 3.982275,1.956918 4.846139,3.839147 0.646099,1.407753 0.604355,3.731343 -0.0938,5.22091 -0.63993,1.365348 -1.757112,2.518418 -3.059985,3.158285 -1.323293,0.649896 -3.926789,0.752711 -5.240601,0.206959 z"
     id="path5540"
     inkscape:connector-curvature="0" /><path
     style="fill:#ff0000"
     d="m 41.655674,21.788061 c -7.622137,-0.683266 -13.87858,-1.268451 -13.903207,-1.300412 -0.07672,-0.09957 1.281938,-14.8983053 1.376485,-14.9928521 0.1106,-0.1106009 27.524025,2.3223553 27.65617,2.4544998 0.07623,0.076229 -1.161232,15.0294973 -1.247108,15.0698343 -0.01315,0.0062 -6.260204,-0.547804 -13.88234,-1.23107 z"
     id="path5542"
     inkscape:connector-curvature="0" /></svg>