<?xml version="1.0" encoding="UTF-8" standalone="no"?>
<!-- Generator: Adobe Illustrator 16.0.4, SVG Export Plug-In . SVG Version: 6.00 Build 0)  -->

<svg
   xmlns:ns="&amp;ns_sfw;"
   xmlns:dc="http://purl.org/dc/elements/1.1/"
   xmlns:cc="http://creativecommons.org/ns#"
   xmlns:rdf="http://www.w3.org/1999/02/22-rdf-syntax-ns#"
   xmlns:svg="http://www.w3.org/2000/svg"
   xmlns="http://www.w3.org/2000/svg"
   xmlns:sodipodi="http://sodipodi.sourceforge.net/DTD/sodipodi-0.dtd"
   xmlns:inkscape="http://www.inkscape.org/namespaces/inkscape"
   version="1.1"
   id="Layer_1"
   x="0px"
   y="0px"
   width="32.354px"
   height="42px"
   viewBox="0 0 32.354 42"
   enable-background="new 0 0 32.354 42"
   xml:space="preserve"
   inkscape:version="0.91 r13725"
   sodipodi:docname="icons-document.svg"><defs
     id="defs5442" /><sodipodi:namedview
     pagecolor="#ffffff"
     bordercolor="#666666"
     borderopacity="1"
     objecttolerance="10"
     gridtolerance="10"
     guidetolerance="10"
     inkscape:pageopacity="0"
     inkscape:pageshadow="2"
     inkscape:window-width="1280"
     inkscape:window-height="751"
     id="namedview5440"
     showgrid="false"
     inkscape:zoom="5.6190476"
     inkscape:cx="16.177"
     inkscape:cy="21"
     inkscape:window-x="0"
     inkscape:window-y="1"
     inkscape:window-maximized="1"
     inkscape:current-layer="Layer_1" /><metadata
     id="metadata5430"><ns:sfw><ns:slices /><ns:sliceSourceBounds
         width="1387.212"
         height="339.173"
         bottomLeftOrigin="true"
         y="-586"
         x="-147" /></ns:sfw><rdf:RDF><cc:Work
         rdf:about=""><dc:format>image/svg+xml</dc:format><dc:type
           rdf:resource="http://purl.org/dc/dcmitype/StillImage" /></cc:Work></rdf:RDF></metadata><path
     fill="#20c3c4"
     d="M20.562,0H0v42h32.354V12.239L20.562,0z M21.115,5.479l5.554,5.765h-5.554V5.479z M28.949,38.599H3.404  V3.406h15.156v10.392h10.388L28.949,38.599L28.949,38.599z"
     id="path5432" /><rect
     x="7.038"
     y="15.729"
     fill="#20c3c4"
     width="18.282"
     height="1.705"
     id="rect5434" /><rect
     x="7.038"
     y="22.794"
     fill="#20c3c4"
     width="18.282"
     height="1.7"
     id="rect5436" /><rect
     x="7.038"
     y="29.859"
     fill="#20c3c4"
     width="18.282"
     height="1.701"
     id="rect5438" /><path
     style="fill:#ff0000"
     d="m 0.05327123,21.05339 0,-20.91101712 10.27754277,6.5166e-4 10.277542,6.5168e-4 5.82839,6.04264648 5.82839,6.0426463 0,14.867719 0,14.867719 -16.105933,0 -16.10593177,0 0,-20.911017 z m 29.00847477,5.072034 0,-12.457627 -5.25,0 -5.25,0 0,-5.1610173 0,-5.161017 -7.652543,0 -7.6525419,0 0,17.6186443 0,17.618644 12.9025419,0 12.902543,0 0,-12.457627 z M 25.71147,10.152966 C 25.121117,9.4922669 23.831513,8.15235 22.845685,7.1753729 l -1.792414,-1.7763222 0,2.9775934 0,2.9775929 2.865785,0 2.865786,0 -1.073372,-1.201271 z"
     id="path5444"
     inkscape:connector-curvature="0" /><path
     style="fill:#ff0000"
     d="m 7.1719153,16.604237 0,-0.800847 9.0762707,0 9.076272,0 0,0.800847 0,0.800848 -9.076272,0 -9.0762707,0 0,-0.800848 z"
     id="path5446"
     inkscape:connector-curvature="0" /><path
     style="fill:#ff0000"
     d="m 11.665559,24.390389 c 2.520445,-0.02785 6.64481,-0.02785 9.165255,0 2.520445,0.02785 0.458262,0.05064 -4.582628,0.05064 -5.040889,0 -7.1030715,-0.02279 -4.582627,-0.05064 z"
     id="path5448"
     inkscape:connector-curvature="0" /><path
     style="fill:#ff0000"
     d="m 7.1719153,23.633898 0,-0.711864 9.0762707,0 9.076272,0 0,0.711864 0,0.711865 -9.076272,0 -9.0762707,0 0,-0.711865 z"
     id="path5450"
     inkscape:connector-curvature="0" /><path
     style="fill:#ff0000"
     d="m 7.1719153,30.663559 0,-0.800847 9.0762707,0 9.076272,0 0,0.800847 0,0.800848 -9.076272,0 -9.0762707,0 0,-0.800848 z"
     id="path5452"
     inkscape:connector-curvature="0" /></svg>