<?xml version="1.0" encoding="UTF-8" standalone="no"?>
<!-- Generator: Adobe Illustrator 16.0.4, SVG Export Plug-In . SVG Version: 6.00 Build 0)  -->

<svg
   xmlns:ns="&amp;ns_sfw;"
   xmlns:dc="http://purl.org/dc/elements/1.1/"
   xmlns:cc="http://creativecommons.org/ns#"
   xmlns:rdf="http://www.w3.org/1999/02/22-rdf-syntax-ns#"
   xmlns:svg="http://www.w3.org/2000/svg"
   xmlns="http://www.w3.org/2000/svg"
   xmlns:sodipodi="http://sodipodi.sourceforge.net/DTD/sodipodi-0.dtd"
   xmlns:inkscape="http://www.inkscape.org/namespaces/inkscape"
   version="1.1"
   id="Layer_1"
   x="0px"
   y="0px"
   width="38.359px"
   height="42.001px"
   viewBox="0 0 38.359 42.001"
   enable-background="new 0 0 38.359 42.001"
   xml:space="preserve"
   inkscape:version="0.91 r13725"
   sodipodi:docname="icons-environment.svg"><defs
     id="defs5103" /><sodipodi:namedview
     pagecolor="#ffffff"
     bordercolor="#666666"
     borderopacity="1"
     objecttolerance="10"
     gridtolerance="10"
     guidetolerance="10"
     inkscape:pageopacity="0"
     inkscape:pageshadow="2"
     inkscape:window-width="1280"
     inkscape:window-height="751"
     id="namedview5101"
     showgrid="false"
     inkscape:zoom="5.6189139"
     inkscape:cx="19.179501"
     inkscape:cy="21.0005"
     inkscape:window-x="0"
     inkscape:window-y="1"
     inkscape:window-maximized="1"
     inkscape:current-layer="Layer_1" /><metadata
     id="metadata5091"><ns:sfw><ns:slices /><ns:sliceSourceBounds
         width="1387.212"
         height="339.173"
         bottomLeftOrigin="true"
         y="-586"
         x="-147" /></ns:sfw><rdf:RDF><cc:Work
         rdf:about=""><dc:format>image/svg+xml</dc:format><dc:type
           rdf:resource="http://purl.org/dc/dcmitype/StillImage" /></cc:Work></rdf:RDF></metadata><g
     id="g5093"><path
       fill="#20c3c4"
       d="M34.23,24.98c-6.067,7.285-12.364,3.148-14.419,1.453c1.584-1.732,2.312-2.672,5.062-4.939   c2.845,1.162,7.933-1.044,7.933-1.044c-3.423,0.897-6.04,0.388-6.97,0.143c0.2-0.156,3.577-2.601,4.599-4.015   c2.827,0.088,5.162-2.34,5.162-2.34c-0.076-0.066-1.506,1.03-4.21,1.162c2.8-4.113,2.674-7.896,2.674-7.896   s-1.033,3.453-3.663,7.24c-0.539-2.688,0.147-4.518,0.07-4.578c0,0-1.832,3.02-0.987,5.795c-1.438,1.643-3.705,3.062-4.542,3.699   c-0.065-0.173-0.939-3.041-0.09-7.276c0,0-2.305,5.326-0.861,8.088c-1.766,1.358-2.239,1.692-5.189,4.989   c-6.681-5-0.944-13.945,4.058-16.028C28.002,7.287,30.146,7.719,34.862,0C40.026,7.65,39.181,19.042,34.23,24.98z"
       id="path5095" /><path
       fill="#20c3c4"
       d="M5.722,24.203c3.038,1.391,5.146,3.277,6.593,5.082c0.018-0.053,0.04-0.096,0.057-0.156   C15.121,19.229,0,20.605,0,20.605s2.089,3.215,3.253,6.721c1.348,4.064,6.852,7.441,8.829,2.615   C10.654,28.018,8.611,25.916,5.722,24.203z"
       id="path5097"
       style="fill:#ff0000" /><path
       fill="#20c3c4"
       d="M19.812,26.434c-0.019-0.023-1.045-0.941-1.029-0.963c-2.592,2.854-3.603,5.293-3.849,8.402   c-0.392-1.068-1.177-2.781-2.619-4.588c-0.068,0.236-0.147,0.451-0.232,0.656c1.537,2.068,2.132,4.889,2.481,5.812   c0,2.582,0.283,3.871,0.51,6.027c0,0,1.39,0.82,1.776-0.711C16.064,39.773,15.295,30.852,19.812,26.434z"
       id="path5099" /></g><path
     style="fill:#ff0000"
     d="m 15.370439,41.812893 c -0.244081,-0.154815 -0.731362,-3.639957 -0.741428,-5.302851 -0.0069,-1.133473 -1.028605,-4.179656 -1.895231,-5.650358 -0.862583,-1.463841 -0.497737,-1.675019 0.429815,-0.248782 0.401047,0.616665 0.947084,1.598281 1.213414,2.181368 0.549062,1.202085 0.599272,1.159836 0.942664,-0.793203 0.251031,-1.42774 1.489179,-3.99415 2.607513,-5.404807 l 0.82808,-1.044533 0.442525,0.442525 0.442524,0.442524 -0.666872,0.868964 c -0.892299,1.162708 -1.770086,3.047293 -2.228398,4.784312 -0.523227,1.983047 -0.664196,6.069323 -0.272831,7.908558 0.259554,1.219785 0.258749,1.348968 -0.01027,1.646225 -0.312356,0.345149 -0.716251,0.408076 -1.09151,0.170058 z"
     id="path5105"
     inkscape:connector-curvature="0" /><path
     style="fill:#ff0000"
     d="m 26.013562,29.037544 c -2.140686,-0.30985 -4.256012,-1.149776 -5.511905,-2.188599 l -0.61772,-0.510953 2.336316,-2.31228 2.336317,-2.312279 1.84081,0.08532 c 1.564043,0.07249 2.095012,0.01925 3.531529,-0.354097 0.929895,-0.241679 1.971021,-0.569361 2.313614,-0.72818 l 0.622896,-0.288762 -0.622896,0.09934 c -2.063119,0.329026 -3.523338,0.409761 -4.68388,0.25897 -0.702969,-0.09134 -1.349063,-0.168541 -1.435763,-0.171563 -0.0867,-0.003 0.464801,-0.496283 1.22556,-1.096134 0.76076,-0.599851 1.77752,-1.470713 2.259468,-1.935249 0.714901,-0.689072 1.061006,-0.881712 1.879431,-1.046075 0.551738,-0.110805 1.341897,-0.365443 1.755909,-0.565862 0.796815,-0.385732 2.450223,-1.580949 2.339787,-1.691386 -0.03592,-0.03592 -0.541955,0.126931 -1.124512,0.361903 -0.582556,0.234972 -1.484866,0.483451 -2.005133,0.552176 l -0.945941,0.124954 0.546786,-0.862192 c 0.791115,-1.247459 1.564611,-3.374409 1.875516,-5.157267 0.318227,-1.8248561 0.307996,-1.6821986 0.120647,-1.6821986 -0.08239,0 -0.240869,0.3039582 -0.352173,0.6754629 -0.268915,0.8975566 -1.798055,3.9731507 -2.582098,5.1934337 l -0.626262,0.974712 -0.127784,-0.509131 c -0.07028,-0.280022 -0.08339,-1.279249 -0.02914,-2.220505 l 0.09864,-1.711373 -0.406848,0.891012 c -0.585757,1.28283 -0.865682,2.725323 -0.774226,3.989691 l 0.07965,1.101145 -1.094829,1.013408 c -0.602157,0.557375 -1.584989,1.353954 -2.184073,1.770176 L 24.962016,19.54193 24.8204,18.874148 c -0.17606,-0.830204 -0.186212,-4.87249 -0.0146,-5.813562 0.199695,-1.095069 -0.13303,-0.52337 -0.664313,1.141447 -0.553543,1.734571 -0.781812,4.460874 -0.468312,5.593234 0.176394,0.637139 0.158567,0.722091 -0.201294,0.959192 -0.217157,0.14308 -1.375255,1.238434 -2.573553,2.434122 l -2.178722,2.173981 -0.900897,-0.952565 c -3.051881,-3.226916 -2.453866,-8.098465 1.512502,-12.321133 1.342571,-1.429325 2.668109,-2.2390932 5.408424,-3.3039935 3.866261,-1.5024487 4.537883,-1.8959413 6.360757,-3.7266695 0.902016,-0.9059021 2.092452,-2.350986 2.693518,-3.2696927 1.235312,-1.88812495 1.064318,-1.91905762 2.228888,0.4032071 1.53529,3.0615212 2.166841,5.9655432 2.166841,9.9636586 0,4.243727 -0.801011,7.55032 -2.600923,10.736675 -1.133614,2.00682 -3.568438,4.412623 -5.303866,5.240651 -1.504808,0.717991 -3.15176,1.066886 -4.271288,0.904844 z"
     id="path5107"
     inkscape:connector-curvature="0" /></svg>