<?xml version="1.0" encoding="UTF-8" standalone="no"?>
<!-- Generator: Adobe Illustrator 16.0.4, SVG Export Plug-In . SVG Version: 6.00 Build 0)  -->

<svg
   xmlns:ns="&amp;ns_sfw;"
   xmlns:dc="http://purl.org/dc/elements/1.1/"
   xmlns:cc="http://creativecommons.org/ns#"
   xmlns:rdf="http://www.w3.org/1999/02/22-rdf-syntax-ns#"
   xmlns:svg="http://www.w3.org/2000/svg"
   xmlns="http://www.w3.org/2000/svg"
   xmlns:xlink="http://www.w3.org/1999/xlink"
   xmlns:sodipodi="http://sodipodi.sourceforge.net/DTD/sodipodi-0.dtd"
   xmlns:inkscape="http://www.inkscape.org/namespaces/inkscape"
   version="1.1"
   id="Layer_1"
   x="0px"
   y="0px"
   width="26.534px"
   height="42px"
   viewBox="0 0 26.534 42"
   enable-background="new 0 0 26.534 42"
   xml:space="preserve"
   inkscape:version="0.91 r13725"
   sodipodi:docname="icons-transportation.svg"><defs
     id="defs4472" /><sodipodi:namedview
     pagecolor="#ffffff"
     bordercolor="#666666"
     borderopacity="1"
     objecttolerance="10"
     gridtolerance="10"
     guidetolerance="10"
     inkscape:pageopacity="0"
     inkscape:pageshadow="2"
     inkscape:window-width="1280"
     inkscape:window-height="751"
     id="namedview4470"
     showgrid="false"
     inkscape:zoom="5.6190476"
     inkscape:cx="13.267"
     inkscape:cy="21"
     inkscape:window-x="0"
     inkscape:window-y="1"
     inkscape:window-maximized="1"
     inkscape:current-layer="Layer_1" /><metadata
     id="metadata4432"><ns:sfw><ns:slices /><ns:sliceSourceBounds
         width="1387.212"
         height="339.173"
         bottomLeftOrigin="true"
         y="-586"
         x="-147" /></ns:sfw><rdf:RDF><cc:Work
         rdf:about=""><dc:format>image/svg+xml</dc:format><dc:type
           rdf:resource="http://purl.org/dc/dcmitype/StillImage" /></cc:Work></rdf:RDF></metadata><g
     id="g4434"><g
       id="g4436"><defs
         id="defs4438"><rect
           id="SVGID_15_"
           width="26.534"
           height="42" /></defs><clipPath
         id="SVGID_2_"><use
           xlink:href="#SVGID_15_"
           overflow="visible"
           id="use4442" /></clipPath><path
         clip-path="url(#SVGID_2_)"
         fill="#20c3c4"
         d="M16.029,33.498h2.633l0.253,6.923l-2.886,0.598V33.498z M20.1,33.498    l1.965,0.007l1.076,5.999l-2.683,0.553L20.1,33.498z M23.434,33.498h0.668l2.002,5.383l-1.653,0.355L23.434,33.498z     M10.479,41.019l-2.885-0.598l0.252-6.923h2.633V41.019z M6.051,40.057l-2.686-0.553l1.076-5.999l1.965-0.007L6.051,40.057z     M2.057,39.236l-1.651-0.355l2.001-5.383h0.669L2.057,39.236z M14.6,41.184l-1.334,0.349l-1.334-0.307v-7.728H14.6V41.184z     M24.159,32.884H2.373l-2.327,6.8c0,0,11.216,2.316,13.222,2.316c2.004,0,13.219-2.316,13.219-2.316L24.159,32.884z"
         id="path4444"
         style="fill:#ff0000" /><path
         clip-path="url(#SVGID_2_)"
         fill="#20c3c4"
         d="M13.267,11.007c2.681,0,4.856,2.291,4.856,5.118    c0,2.828-2.176,5.12-4.856,5.12c-2.683,0-4.856-2.292-4.856-5.12C8.41,13.298,10.584,11.007,13.267,11.007 M13.267,24.905    c4.745,0,8.595-3.932,8.595-8.78c0-2.621-1.127-4.974-2.91-6.581H7.582c-1.783,1.607-2.908,3.96-2.908,6.581    C4.674,20.974,8.521,24.905,13.267,24.905"
         id="path4446"
         style="fill:#ff0000" /><path
         clip-path="url(#SVGID_2_)"
         fill="#20c3c4"
         d="M25.096,26.93l-5.511-0.027v-1.631h1.789v-3.948h-0.808    c-1.653,2.279-4.308,3.76-7.299,3.76c-2.992,0-5.646-1.48-7.302-3.76H5.422l0.107,4.104h1.525v1.502H2.706H1.341    C-0.001,26.93,0,28.378,0,28.378v1.042v1.473c0,0-0.001,1.644,1.341,1.644h23.755c0,0,1.438,0.003,1.438-1.438v-2.722    C26.533,26.93,25.096,26.93,25.096,26.93"
         id="path4448"
         style="fill:#ff0000" /><path
         clip-path="url(#SVGID_2_)"
         fill="#20c3c4"
         d="M13.061,18.216c-1.172,0-2.123-0.96-2.123-2.144s0.951-2.144,2.123-2.144    c1.17,0,2.119,0.959,2.119,2.144C15.18,17.256,14.23,18.216,13.061,18.216 M13.061,12.528c-1.937,0-3.506,1.587-3.506,3.543    c0,1.957,1.569,3.544,3.506,3.544c1.936,0,3.504-1.587,3.504-3.544S14.996,12.528,13.061,12.528"
         id="path4450"
         style="fill:#ff0000" /><path
         clip-path="url(#SVGID_2_)"
         fill="#20c3c4"
         d="M3.339,24.522c-0.408,0-0.738-0.33-0.738-0.738    c0-0.407,0.33-0.737,0.738-0.737c0.407,0,0.737,0.33,0.737,0.737C4.076,24.192,3.746,24.522,3.339,24.522 M5.129,21.398H2.803    v0.768c-0.465,0.049-1.299,0.754-1.299,1.618c0,0.898,0.809,1.626,1.686,1.626s1.637-0.728,1.637-1.626    c0-0.355-0.164-0.684-0.354-0.951l0.657-1.187V21.398z"
         id="path4452"
         style="fill:#ff0000" /><path
         clip-path="url(#SVGID_2_)"
         fill="#20c3c4"
         d="M22.997,24.566c-0.407,0-0.738-0.33-0.738-0.737    c0-0.408,0.331-0.738,0.738-0.738s0.739,0.33,0.739,0.738C23.736,24.236,23.404,24.566,22.997,24.566 M23.271,22.243v-0.129    v-0.716h-2.326v0.325l0.757,1.187c-0.188,0.269-0.278,0.597-0.278,0.952c0,0.899,0.723,1.626,1.6,1.626s1.666-0.727,1.666-1.626    C24.689,22.998,24.201,22.293,23.271,22.243"
         id="path4454"
         style="fill:#ff0000" /></g><polygon
       fill="#20c3c4"
       points="4.583,22.28 4.617,22.28 4.617,22.181  "
       id="polygon4456" /><g
       id="g4458"><defs
         id="defs4460"><rect
           id="SVGID_17_"
           width="26.534"
           height="42" /></defs><clipPath
         id="SVGID_4_"><use
           xlink:href="#SVGID_17_"
           overflow="visible"
           id="use4464" /></clipPath><path
         clip-path="url(#SVGID_4_)"
         fill="#20c3c4"
         d="M16.51,7.84V7.473h-1.146l0.025-0.872l3.139-6.252V0.316    C18.527,0.283,18.507,0,18.18,0H8.49c0,0-0.35,0-0.35,0.308v0.017l2.965,6.276v0.897h-0.947v0.349h-2.51v0.248h11.344V7.84H16.51z    "
         id="path4466"
         style="fill:#ff0000" /><path
         clip-path="url(#SVGID_4_)"
         fill="#20c3c4"
         d="M18.619,9.214c0-0.208-0.168-0.375-0.375-0.375H7.83    c-0.208,0-0.375,0.167-0.375,0.375v0.18c0,0.207,0.167,0.375,0.375,0.375h10.414c0.207,0,0.375-0.168,0.375-0.376V9.214z"
         id="path4468"
         style="fill:#ff0000" /></g></g></svg>