<?xml version="1.0" encoding="UTF-8" standalone="no"?>
<!-- Generator: Adobe Illustrator 16.0.4, SVG Export Plug-In . SVG Version: 6.00 Build 0)  -->

<svg
   xmlns:ns="&amp;ns_sfw;"
   xmlns:dc="http://purl.org/dc/elements/1.1/"
   xmlns:cc="http://creativecommons.org/ns#"
   xmlns:rdf="http://www.w3.org/1999/02/22-rdf-syntax-ns#"
   xmlns:svg="http://www.w3.org/2000/svg"
   xmlns="http://www.w3.org/2000/svg"
   xmlns:sodipodi="http://sodipodi.sourceforge.net/DTD/sodipodi-0.dtd"
   xmlns:inkscape="http://www.inkscape.org/namespaces/inkscape"
   version="1.1"
   id="Layer_1"
   x="0px"
   y="0px"
   width="47.007px"
   height="42.001px"
   viewBox="0 0 47.007 42.001"
   enable-background="new 0 0 47.007 42.001"
   xml:space="preserve"
   inkscape:version="0.91 r13725"
   sodipodi:docname="icons-parks.svg"><defs
     id="defs4553" /><sodipodi:namedview
     pagecolor="#ffffff"
     bordercolor="#666666"
     borderopacity="1"
     objecttolerance="10"
     gridtolerance="10"
     guidetolerance="10"
     inkscape:pageopacity="0"
     inkscape:pageshadow="2"
     inkscape:window-width="1280"
     inkscape:window-height="751"
     id="namedview4551"
     showgrid="false"
     inkscape:zoom="5.6189139"
     inkscape:cx="23.5035"
     inkscape:cy="21.0005"
     inkscape:window-x="0"
     inkscape:window-y="1"
     inkscape:window-maximized="1"
     inkscape:current-layer="Layer_1" /><metadata
     id="metadata4537"><ns:sfw><ns:slices /><ns:sliceSourceBounds
         width="1387.212"
         height="339.173"
         bottomLeftOrigin="true"
         y="-586"
         x="-147" /></ns:sfw><rdf:RDF><cc:Work
         rdf:about=""><dc:format>image/svg+xml</dc:format><dc:type
           rdf:resource="http://purl.org/dc/dcmitype/StillImage" /></cc:Work></rdf:RDF></metadata><g
     id="g4539"><path
       fill="#20c3c4"
       d="M40.336,39.935c0.033,0.355,0.01,0.716,0.01,1.127c0.581,0,1.42,0,2.02,0   c0.023-0.497,0.047-0.996,0.074-1.59c1.617,0.17,3.036,0.224,4.539,0.818c0.01,0.085,0.019,0.17,0.028,0.257   c-0.378,0.128-0.748,0.324-1.134,0.368c-2.316,0.263-4.634,0.625-6.958,0.704C32.897,41.826,26.874,42.013,20.854,42   c-6.105-0.012-12.219-0.12-18.293-0.859c-0.67-0.084-1.333-0.246-1.995-0.391C0.411,40.717,0.274,40.606,0,40.465   c0.754-0.6,1.563-0.597,2.31-0.7c1.364-0.186,2.74-0.299,4.112-0.399c0.406-0.032,0.586-0.198,0.738-0.551   c1.32-3.077,1.979-6.3,2.12-9.633c0.126-2.956-0.072-5.892-0.639-8.799c-0.022-0.121-0.056-0.241-0.074-0.319   c-0.728,0.257-1.414,0.609-2.14,0.738c-3.449,0.613-6.255-2.695-5.121-6.016c0.124-0.365,0.104-0.592-0.137-0.9   c-1.466-1.88-1.258-4.543,0.477-6.174c0.272-0.255,0.387-0.49,0.378-0.868C1.96,3.869,4.186,1.799,7.145,2.03   c0.22,0.018,0.528-0.119,0.678-0.29c1.901-2.156,4.746-2.326,6.892-0.412c0.152,0.136,0.5,0.198,0.688,0.121   c3.496-1.42,6.869,1.118,6.515,4.898c-0.019,0.213,0.121,0.529,0.293,0.661c2.608,2.017,2.597,5.556-0.049,7.56   c-0.241,0.183-0.42,0.313-0.363,0.702c0.271,1.896-0.394,3.452-1.958,4.526c-1.549,1.066-3.213,1.083-4.88,0.21   c-0.108-0.057-0.224-0.103-0.45-0.206c-0.201,1.202-0.439,2.335-0.576,3.479c-0.617,5.133-0.096,10.15,1.561,15.054   c0.171,0.509,0.41,0.638,0.911,0.605c0.733-0.048,1.153-0.012,1.964-0.012c0,0.716,0.02,1.536,0.02,2.28   c0.611,0,1.655-0.002,2.273-0.002c0-0.575-0.039-1.218-0.039-1.218s0.169-0.003,0.056-0.022c0.145,0.035,0.06-0.031,0.06-0.031   s0.067-0.137,0.083,0.031c0.562,0,1.505,0.048,2.086,0.048c0.023-0.309,0.033-0.769,0.066-1.206   c5.151,0.107,9.876,0.189,15.016,0.296c0.062,0.299,0.021,0.774,0.07,1.014c0.515,0,1.675,0.022,2.061,0.022   c0.039-0.224-0.008-0.929-0.008-0.929s0.074,0.011,0.198-0.021"
       id="path4541"
       style="fill:#ff0000" /><path
       fill="#20c3c4"
       d="M43.086,35.071c-0.378,0.033-0.666-0.003-1.012,0.026c0,1.464,0,2.902,0,4.343   c0,0.252,0.001,0.507,0.003,0.762c0.003,0.854,0.039,0.643-0.779,0.671c-0.52,0.019-0.738,0.039-0.729-0.498   c0.028-1.734,0.011-3.472,0.011-5.263c-0.255,0-0.471,0-0.77,0c0,1.322,0.008,2.63-0.008,3.938   c-0.002,0.236-0.06,0.655-0.151,0.673c-0.382,0.073-0.793,0.055-1.182-0.009c-0.072-0.009-0.129-0.364-0.131-0.563   c-0.011-1.334-0.006-2.666-0.006-4.048c-5.276,0-10.502,0-15.808,0c0,1.554,0,3.088,0,4.605c-0.137,0.041-0.193,0.072-0.255,0.079   c-1.234,0.121-1.247,0.101-1.234-1.118c0.011-1.182,0.002-2.364,0.002-3.576c-0.26,0-0.441,0-0.704,0c0,1.263-0.001,2.508,0,3.75   c0.002,0.51-0.021,1.021,0.021,1.526c0.056,0.667-0.33,0.683-0.834,0.692c-0.509,0.01-0.71-0.116-0.697-0.67   c0.036-1.548,0.013-3.098,0.011-4.646c0-0.206-0.016-0.413-0.026-0.652c-0.241-0.023-0.319-0.016-0.694-0.021   c0-0.457,0.043-0.712,0.116-1.042c0.784-1.134,1.664-2.254,1.664-2.254s1.245,0.013,2.318,0.013c6.322,0,12.646,0.006,18.968-0.013   c0.231,0,0.584,0,0.584,0s0.272,0.355,0.373,0.605c0.263,0.66,0.607,1.286,0.887,1.939C43.101,34.501,43.063,34.791,43.086,35.071z   "
       id="path4543" /><path
       fill="#20c3c4"
       d="M41.763,28.215c0,0.455,0,0.602,0,1.099c-7.286,0-14.558,0-21.869,0c0-0.461,0-0.607,0-1.099   C27.18,28.215,34.453,28.215,41.763,28.215z"
       id="path4545" /><path
       fill="#20c3c4"
       d="M41.763,30c0,0.483,0.019,0.695,0.019,1.215c-0.224,0.013-0.445,0.034-0.666,0.034   c-6.847,0.002-13.684-0.058-20.53-0.032c-0.292,0.001-0.671,0.011-0.671,0.011s-0.015-0.214-0.019-0.504   c-0.004-0.327,0-0.768,0-0.768s0.418-0.002,0.672,0c6.847,0.023,13.693,0.013,20.54,0.013C41.313,29.969,41.52,29.987,41.763,30z"
       id="path4547" /><path
       fill="#20c3c4"
       d="M19.968,26.231c7.279,0,14.506,0,21.782,0c0,0.479-0.005,0.789-0.005,1.314c-0.252,0-0.479,0-0.705,0   c-6.704-0.002-13.405,0-20.107-0.002c-0.559,0-0.98,0.002-0.98,0.002S19.93,27,19.968,26.231z"
       id="path4549" /></g><path
     style="fill:#ff0000"
     d="m 18.947459,37.961073 c 0,-2.817864 -0.01438,-2.936511 -0.35594,-2.936511 -0.609156,0 -0.420884,-0.788392 0.48733,-2.040703 l 0.843271,-1.162763 10.900534,0 10.900534,0 0.625134,1.24135 c 0.760132,1.509422 0.80171,1.962116 0.180207,1.962116 l -0.444926,0 0,2.847526 0,2.847525 -0.711881,0 -0.711882,0 0,-2.847525 0,-2.847526 -0.439608,0 -0.43961,0 -0.04981,2.269122 -0.04981,2.269122 -0.5146,0.05874 c -0.292286,0.03337 -0.57943,-0.04352 -0.664664,-0.177971 -0.08254,-0.130193 -0.151291,-1.177732 -0.152789,-2.327865 l -0.0027,-2.091152 -7.91968,0 -7.91968,0 0,2.292867 0,2.292868 -0.478138,0.0914 c -0.911531,0.17425 -0.945625,0.08835 -0.945625,-2.382563 l 0,-2.294574 -0.444925,0 -0.444926,0 0,2.936511 0,2.93651 -0.622896,0 -0.622897,0 0,-2.93651 z"
     id="path4555"
     inkscape:connector-curvature="0" /><path
     style="fill:#ff0000"
     d="m 20.015281,30.575304 0,-0.533911 10.856191,0 10.85619,0 0,0.533911 0,0.533911 -10.85619,0 -10.856191,0 0,-0.533911 z"
     id="path4557"
     inkscape:connector-curvature="0" /><path
     style="fill:#ff0000"
     d="m 20.015281,28.7956 0,-0.533911 10.856191,0 10.85619,0 0,0.533911 0,0.533911 -10.85619,0 -10.856191,0 0,-0.533911 z"
     id="path4559"
     inkscape:connector-curvature="0" /><path
     style="fill:#ff0000"
     d="m 20.015281,26.926912 0,-0.622896 10.856191,0 10.85619,0 0,0.622896 0,0.622896 -10.85619,0 -10.856191,0 0,-0.622896 z"
     id="path4561"
     inkscape:connector-curvature="0" /></svg>