<?xml version="1.0" encoding="UTF-8" standalone="no"?>
<!-- Generator: Adobe Illustrator 16.0.4, SVG Export Plug-In . SVG Version: 6.00 Build 0)  -->

<svg
   xmlns:ns="&amp;ns_sfw;"
   xmlns:dc="http://purl.org/dc/elements/1.1/"
   xmlns:cc="http://creativecommons.org/ns#"
   xmlns:rdf="http://www.w3.org/1999/02/22-rdf-syntax-ns#"
   xmlns:svg="http://www.w3.org/2000/svg"
   xmlns="http://www.w3.org/2000/svg"
   xmlns:xlink="http://www.w3.org/1999/xlink"
   xmlns:sodipodi="http://sodipodi.sourceforge.net/DTD/sodipodi-0.dtd"
   xmlns:inkscape="http://www.inkscape.org/namespaces/inkscape"
   version="1.1"
   id="Layer_1"
   x="0px"
   y="0px"
   width="39.241px"
   height="42px"
   viewBox="0 0 39.241 42"
   enable-background="new 0 0 39.241 42"
   xml:space="preserve"
   inkscape:version="0.91 r13725"
   sodipodi:docname="icons-food.svg"><defs
     id="defs5039" /><sodipodi:namedview
     pagecolor="#ffffff"
     bordercolor="#666666"
     borderopacity="1"
     objecttolerance="10"
     gridtolerance="10"
     guidetolerance="10"
     inkscape:pageopacity="0"
     inkscape:pageshadow="2"
     inkscape:window-width="1280"
     inkscape:window-height="751"
     id="namedview5037"
     showgrid="false"
     inkscape:zoom="5.6190476"
     inkscape:cx="19.620501"
     inkscape:cy="21"
     inkscape:window-x="0"
     inkscape:window-y="1"
     inkscape:window-maximized="1"
     inkscape:current-layer="Layer_1" /><metadata
     id="metadata5021"><ns:sfw><ns:slices /><ns:sliceSourceBounds
         width="1387.212"
         height="339.173"
         bottomLeftOrigin="true"
         y="-586"
         x="-147" /></ns:sfw><rdf:RDF><cc:Work
         rdf:about=""><dc:format>image/svg+xml</dc:format><dc:type
           rdf:resource="http://purl.org/dc/dcmitype/StillImage" /></cc:Work></rdf:RDF></metadata><g
     id="g5023"><g
       id="g5025"><defs
         id="defs5027"><rect
           id="SVGID_1_"
           width="39.241"
           height="42" /></defs><clipPath
         id="SVGID_2_"><use
           xlink:href="#SVGID_1_"
           overflow="visible"
           id="use5031" /></clipPath><path
         clip-path="url(#SVGID_2_)"
         fill="#20c3c4"
         d="M10.414,8.875c0.166,0.083,0.355,0.177,0.554,0.276l1.25,0.613    c-0.192,0.268-0.34,0.521-0.929,1.266c-1.163,1.469-3.307,4.175-3.184,6.059c0.562-0.11,1.907-0.919,2.828-1.473    c1.711-1.03,3.326-2.003,4.514-2.003h0.012c1.806,0.01,2.578,2.288,3.262,4.299c0.212,0.625,0.51,1.504,0.756,1.923    c0.158-0.547,0.244-1.669,0.301-2.396c0.088-1.122,0.17-2.183,0.424-2.884c0.625-1.729,4.091-0.927,8.918,0.396    c0.38,0.104,0.736,0.202,1.055,0.287c-0.725-0.935-2.038-2.355-2.848-3.23c-0.926-1.003-1.67-1.94-2-2.413    c0.277-0.181,0.588-0.372,0.839-0.527c1.413-0.868,2.223-1.394,2.427-2.065c0.082-0.271,0.041-0.559-0.109-0.792    c-0.273-0.427-0.791-0.495-0.961-0.519c-1.668-0.221-6.994,0.777-9.125,1.453c0.221-2.614,1.072-4.423-0.449-6.534    c-1.062-1.475-2.291,0.055-1.533,1.104c1.053,1.46,0.359,2.702,0.068,5.592c-0.096-0.041-0.199-0.087-0.31-0.136    c-0.647-0.286-1.528-0.677-2.919-1.1c-0.883-0.27-1.71-0.456-2.459-0.556C8.861,5.259,7.988,5.656,7.834,5.738l-0.229,0.12    l-0.119,0.23C7.369,6.316,7.349,6.58,7.431,6.828C7.632,7.444,8.365,7.855,10.414,8.875"
         id="path5033" /><path
         clip-path="url(#SVGID_2_)"
         fill="#20c3c4"
         d="M36.322,27.409c-0.178,0.896-0.607,2.685-1.465,4.592    c-1.463,3.251-4.678,4.796-5.324,4.71h-0.001c-0.056-0.007-0.108-0.021-0.157-0.044c-0.166-0.074-0.275-0.225-0.295-0.402    c-0.035-0.327,0.17-0.479,0.663-0.846c0.86-0.635,2.65-1.96,3.628-4.132c0.805-1.789,1.309-3.629,1.646-4.846    c0.396-1.434,0.514-1.864,1.042-1.794l0.07,0.009l0.074,0.032C36.446,24.798,36.813,24.963,36.322,27.409 M27.782,10.472    c0.166,0.204,0.343,0.413,0.534,0.619c3.277,3.547,4.045,4.541,3.607,5.314c-0.092,0.164-0.381,0.532-1.074,0.389    c-0.489-0.101-1.231-0.305-2.09-0.54c-1.393-0.382-3.123-0.855-4.612-1.126c-2.108-0.382-2.608-0.139-2.687-0.086    c-0.186,0.535-0.263,1.535-0.338,2.502c-0.152,1.976-0.283,3.208-1,3.67c-0.17,0.111-0.363,0.168-0.564,0.168    c-0.129,0-0.26-0.022-0.391-0.07c-0.822-0.296-1.222-1.475-1.728-2.965c-0.483-1.426-1.146-3.377-1.989-3.384h-0.006    c-0.811,0-2.477,1.005-3.816,1.811c-2.117,1.274-3.356,1.976-4.222,1.556c-0.202-0.098-0.555-0.352-0.629-0.939    c-0.296-2.354,1.863-5.188,3.279-6.982c-5.421,2.372-9.109,6.912-9.905,12.22c-0.531,3.546,0.381,8.185,1.88,10.595    c1.787,2.866,4.779,5.119,9.224,6.671c2.127,0.742,5.011,1.557,7.721,1.912c10.744,1.411,18.947-4.99,20.143-14.013    C40.073,20.597,35.353,13.668,27.782,10.472"
         id="path5035"
         style="fill:#ff0000" /></g></g><path
     style="fill:#ff0000"
     d="m 18.818274,17.938983 c -1.049631,-2.954502 -1.673759,-3.90778 -2.802356,-4.28025 -0.804167,-0.265399 -2.046567,0.111757 -3.88779,1.180217 -0.783051,0.454403 -2.013295,1.149376 -2.7338757,1.544384 l -1.3101467,0.718197 0.1206881,-0.604579 c 0.2170222,-1.087158 1.1490765,-2.769963 2.5935453,-4.682594 0.780324,-1.033233 1.418772,-1.9427545 1.418772,-2.0211586 0,-0.078404 -0.889698,-0.5801136 -1.977106,-1.1149101 C 7.7485756,7.452984 6.9883562,6.6423139 7.6811014,5.9495687 8.4191156,5.2115545 11.152746,5.4374912 14.083635,6.4787431 c 2.56144,0.9099985 2.435939,0.9398829 2.693806,-0.641455 0.326808,-2.004115 0.297133,-3.0253927 -0.111178,-3.8262712 -0.582413,-1.14237003 -0.398151,-1.86864402 0.474093,-1.86864402 0.533229,0 1.235624,1.04175952 1.492548,2.21367762 0.151895,0.6928471 0.139806,1.3426589 -0.05238,2.8155604 -0.137418,1.0531573 -0.221889,1.9427937 -0.187713,1.9769699 0.03418,0.034176 0.586465,-0.083253 1.227309,-0.2609536 1.724392,-0.4781597 5.387565,-1.0630805 6.912282,-1.1037259 1.170485,-0.031202 1.384295,0.013356 1.732157,0.3609856 0.656035,0.6555974 0.310179,1.214711 -1.498994,2.4232823 l -1.557134,1.0402032 1.023408,1.2132616 c 0.562875,0.667293 1.575465,1.822782 2.2502,2.567751 0.674733,0.74497 1.179944,1.401338 1.122687,1.458595 -0.05726,0.05726 -1.297459,-0.186697 -2.756,-0.542122 -4.166877,-1.015403 -5.774529,-1.038336 -6.480737,-0.09245 -0.22103,0.296047 -0.390064,0.995156 -0.514454,2.127737 -0.101893,0.92775 -0.241367,2.047199 -0.309941,2.487666 l -0.12468,0.800847 -0.600639,-1.690678 z"
     id="path5041"
     inkscape:connector-curvature="0" /></svg>