<?xml version="1.0" encoding="UTF-8" standalone="no"?>
<!-- Generator: Adobe Illustrator 16.0.4, SVG Export Plug-In . SVG Version: 6.00 Build 0)  -->

<svg
   xmlns:ns="&amp;ns_sfw;"
   xmlns:dc="http://purl.org/dc/elements/1.1/"
   xmlns:cc="http://creativecommons.org/ns#"
   xmlns:rdf="http://www.w3.org/1999/02/22-rdf-syntax-ns#"
   xmlns:svg="http://www.w3.org/2000/svg"
   xmlns="http://www.w3.org/2000/svg"
   xmlns:xlink="http://www.w3.org/1999/xlink"
   xmlns:sodipodi="http://sodipodi.sourceforge.net/DTD/sodipodi-0.dtd"
   xmlns:inkscape="http://www.inkscape.org/namespaces/inkscape"
   version="1.1"
   id="Layer_1"
   x="0px"
   y="0px"
   width="42px"
   height="42px"
   viewBox="0 0 42 42"
   enable-background="new 0 0 42 42"
   xml:space="preserve"
   inkscape:version="0.91 r13725"
   sodipodi:docname="icons-elections.svg"><defs
     id="defs5222" /><sodipodi:namedview
     pagecolor="#ffffff"
     bordercolor="#666666"
     borderopacity="1"
     objecttolerance="10"
     gridtolerance="10"
     guidetolerance="10"
     inkscape:pageopacity="0"
     inkscape:pageshadow="2"
     inkscape:window-width="1280"
     inkscape:window-height="751"
     id="namedview5220"
     showgrid="false"
     inkscape:zoom="5.6190476"
     inkscape:cx="21"
     inkscape:cy="21"
     inkscape:window-x="0"
     inkscape:window-y="1"
     inkscape:window-maximized="1"
     inkscape:current-layer="Layer_1" /><metadata
     id="metadata5182"><ns:sfw><ns:slices /><ns:sliceSourceBounds
         width="1387.212"
         height="339.173"
         bottomLeftOrigin="true"
         y="-586"
         x="-147" /></ns:sfw><rdf:RDF><cc:Work
         rdf:about=""><dc:format>image/svg+xml</dc:format><dc:type
           rdf:resource="http://purl.org/dc/dcmitype/StillImage" /></cc:Work></rdf:RDF></metadata><g
     id="g5184"><g
       id="g5186"><defs
         id="defs5188"><rect
           id="SVGID_23_"
           width="42"
           height="42" /></defs><clipPath
         id="SVGID_2_"><use
           xlink:href="#SVGID_23_"
           overflow="visible"
           id="use5192" /></clipPath><path
         clip-path="url(#SVGID_2_)"
         fill="#20c3c4"
         d="M34.416,0c-0.645,0-1.166,0.523-1.166,1.167V8.75    c0,0.645,0.521,1.167,1.166,1.167H42V0H34.416z"
         id="path5194" /></g><rect
       x="1.166"
       y="36.167"
       fill="#20c3c4"
       width="39.667"
       height="5.833"
       id="rect5196" /><g
       id="g5198"><defs
         id="defs5200"><rect
           id="SVGID_25_"
           width="42"
           height="42" /></defs><clipPath
         id="SVGID_4_"><use
           xlink:href="#SVGID_25_"
           overflow="visible"
           id="use5204" /></clipPath><path
         clip-path="url(#SVGID_4_)"
         fill="#20c3c4"
         d="M27.094,25.197l-0.539-0.396l-0.545,0.396l0.209-0.641l-0.542-0.396h0.669    l0.209-0.64l0.207,0.64h0.668l-0.539,0.396L27.094,25.197z M24.945,21.306l0.67-0.002l0.207-0.639l0.209,0.639h0.667L26.156,21.7    l0.207,0.641l-0.541-0.395l-0.543,0.395l0.209-0.641L24.945,21.306z M24.254,20.312l-0.54-0.396l-0.541,0.396l0.206-0.639    l-0.542-0.395h0.669l0.209-0.642l0.206,0.642h0.667l-0.541,0.395L24.254,20.312z M21.534,19.586l-0.541-0.396l-0.542,0.396    l0.207-0.64l-0.542-0.394l0.67-0.002l0.207-0.64l0.209,0.64h0.668l-0.543,0.396L21.534,19.586z M18.672,20.312l-0.542-0.396    l-0.542,0.396l0.207-0.639l-0.542-0.395h0.671l0.206-0.642l0.207,0.642h0.668l-0.54,0.395L18.672,20.312z M16.626,22.44    l-0.542-0.396l-0.542,0.396l0.207-0.641l-0.542-0.395h0.67l0.206-0.642l0.207,0.642h0.67L16.418,21.8L16.626,22.44z     M15.973,25.235l-0.541-0.396l-0.543,0.396l0.207-0.642L14.555,24.2h0.668l0.209-0.638l0.207,0.638h0.668l-0.543,0.395    L15.973,25.235z M29.167,12.25L29.167,12.25H28.49l-6.213,4.438c-0.768,0.567-1.443,0.844-2.064,0.844    c-0.786,0-1.439-0.444-1.748-1.189c-0.421-1.017-0.138-2.613,0.592-3.385c0.072-0.083,0.301-0.345,0.621-0.708h-2.761h-1.619    h-2.464v14h16.334L29.167,12.25L29.167,12.25z"
         id="path5206" /></g><polygon
       fill="#20c3c4"
       points="30.334,21 30.334,24.5 32.379,24.5 33.25,27.416 21,27.416 8.75,27.416 9.621,24.5 11.666,24.5   11.666,21 4.666,21 0,31.499 0,34.999 42,34.999 42,31.499 37.332,21  "
       id="polygon5208"
       style="fill:#ff0000" /><g
       id="g5210"><defs
         id="defs5212"><rect
           id="SVGID_27_"
           width="42"
           height="42" /></defs><clipPath
         id="SVGID_6_"><use
           xlink:href="#SVGID_27_"
           overflow="visible"
           id="use5216" /></clipPath><path
         clip-path="url(#SVGID_6_)"
         fill="#20c3c4"
         d="M21,8.75c0.584-1.167,4.642-1.141,2.916,0.583l-4.119,4.562    c-0.479,0.481-0.863,3.824,1.785,1.854l8.166-5.833l0.584-1.75l1.75-1.751V1.167H26.25l-5.834,3.5    c-1.064,0.688-1.75,1.166-2.334,2.916c-0.291,0.875-1.166,3.5-1.166,3.5h3.281L21,8.75z"
         id="path5218" /></g></g><path
     style="fill:#ff0000"
     d="m 1.3169492,39.116949 0,-2.847457 19.7542368,0 19.754238,0 0,2.847457 0,2.847458 -19.754238,0 -19.7542368,0 0,-2.847458 z"
     id="path5224"
     inkscape:connector-curvature="0" /><path
     style="fill:#ff0000"
     d="m 12.884746,19.184746 0,-6.940678 3.303431,0 3.303431,0 -0.564233,0.785679 c -0.449967,0.626569 -0.581851,1.014004 -0.651237,1.913136 -0.07539,0.976979 -0.03082,1.209824 0.33394,1.744601 0.482306,0.707106 1.246939,0.996025 2.175159,0.82189 0.403969,-0.07578 1.888402,-1.016282 4.15023,-2.629476 1.936722,-1.38132 3.661461,-2.548807 3.832753,-2.594417 0.292716,-0.07794 0.311441,0.335624 0.311441,6.878508 l 0,6.961435 -8.097458,0 -8.097457,0 0,-6.940678 z m 2.412126,5.857375 c 0.0861,-0.13932 0.173726,-0.13932 0.313045,0 0.27992,0.27992 0.48392,0.23744 0.36374,-0.07574 -0.05682,-0.148069 -0.0045,-0.388323 0.11636,-0.533899 0.178587,-0.215184 0.167324,-0.264682 -0.06023,-0.264682 -0.153944,0 -0.358576,-0.140149 -0.454738,-0.311441 -0.166516,-0.29661 -0.180555,-0.29661 -0.294833,0 -0.06599,0.171292 -0.291614,0.313876 -0.501375,0.316852 -0.350573,0.005 -0.355593,0.02042 -0.06214,0.191175 0.209724,0.122036 0.281925,0.303336 0.210465,0.528486 -0.115201,0.362966 0.167172,0.47696 0.369708,0.149252 z m 11.522531,0.04403 c 0.310664,0.166262 0.34248,0.143079 0.256237,-0.186715 -0.06328,-0.241985 0.0069,-0.438062 0.19642,-0.548683 0.256099,-0.149492 0.244947,-0.172847 -0.08478,-0.177547 -0.237136,-0.0034 -0.424276,-0.155735 -0.498494,-0.405835 l -0.118827,-0.400424 -0.163144,0.400424 c -0.08973,0.220233 -0.301869,0.400424 -0.471421,0.400424 -0.239771,0 -0.26082,0.04746 -0.09472,0.213559 0.117458,0.117458 0.213559,0.373729 0.213559,0.569491 0,0.268811 0.05023,0.305699 0.20523,0.150703 0.148286,-0.148286 0.303647,-0.152559 0.559936,-0.0154 z M 16.622034,22.038136 c 0,-0.159873 0.0961,-0.38678 0.213559,-0.504238 0.166102,-0.166101 0.126554,-0.213559 -0.177966,-0.213559 -0.229378,0 -0.391525,-0.110555 -0.391525,-0.266949 0,-0.146822 -0.08009,-0.266949 -0.177966,-0.266949 -0.09788,0 -0.177967,0.120127 -0.177967,0.266949 0,0.156394 -0.162146,0.266949 -0.391525,0.266949 -0.30452,0 -0.344068,0.04746 -0.177966,0.213559 0.117458,0.117458 0.213559,0.344365 0.213559,0.504238 0,0.204331 0.158596,0.290678 0.533899,0.290678 0.375302,0 0.533898,-0.08635 0.533898,-0.290678 z m 8.987585,0.171552 c 0.07255,-0.117391 0.237608,-0.110307 0.482404,0.0207 0.320893,0.171736 0.35573,0.156448 0.253078,-0.111059 -0.06547,-0.170615 -0.02777,-0.420186 0.08379,-0.554602 0.156699,-0.18881 0.14188,-0.244392 -0.06516,-0.244392 -0.147391,0 -0.321456,-0.180191 -0.386811,-0.400424 l -0.118826,-0.400423 -0.163144,0.400423 c -0.08973,0.220233 -0.295658,0.400424 -0.457619,0.400424 -0.240457,0 -0.25418,0.04855 -0.07481,0.264683 0.120817,0.145575 0.173178,0.38583 0.116359,0.533898 -0.114494,0.298368 0.156471,0.372733 0.330734,0.09077 z m -6.9877,-2.348671 c -0.04607,-0.176186 0.0057,-0.320339 0.114952,-0.320339 0.109297,0 0.198722,-0.08009 0.198722,-0.177966 0,-0.09788 -0.12264,-0.177966 -0.272534,-0.177966 -0.149894,0 -0.321996,-0.128893 -0.382448,-0.286429 -0.101023,-0.263262 -0.122879,-0.263262 -0.270207,0 -0.08816,0.157536 -0.276441,0.286429 -0.4184,0.286429 -0.141958,0 -0.258106,0.08009 -0.258106,0.177966 0,0.09788 0.08942,0.177966 0.198723,0.177966 0.109297,0 0.161026,0.144153 0.114952,0.320339 -0.06781,0.259315 0.02499,0.320339 0.487173,0.320339 0.462179,0 0.554985,-0.06102 0.487173,-0.320339 z m 5.59184,0.139407 c -0.03889,-0.106038 0.05138,-0.332945 0.200605,-0.504238 0.245404,-0.281703 0.240812,-0.31144 -0.04809,-0.31144 -0.175672,0 -0.425792,-0.140149 -0.555821,-0.311441 -0.225159,-0.29661 -0.236687,-0.29661 -0.242077,0 -0.0036,0.200519 -0.145104,0.311441 -0.397186,0.311441 -0.304519,0 -0.344067,0.04746 -0.177966,0.213559 0.117458,0.117458 0.21356,0.344364 0.21356,0.504237 0,0.204924 0.158965,0.290678 0.538842,0.290678 0.311726,0 0.50904,-0.08126 0.468137,-0.192796 z m -2.744383,-0.851271 c -0.04607,-0.176187 0.0057,-0.320339 0.114952,-0.320339 0.109298,0 0.198723,-0.08009 0.198723,-0.177967 0,-0.09788 -0.111559,-0.177966 -0.247909,-0.177966 -0.13635,0 -0.301905,-0.140148 -0.3679,-0.31144 -0.114278,-0.296611 -0.128318,-0.296611 -0.294833,0 -0.09616,0.171292 -0.290989,0.31144 -0.432947,0.31144 -0.141958,0 -0.258106,0.08009 -0.258106,0.177966 0,0.09788 0.08942,0.177967 0.198722,0.177967 0.109298,0 0.161026,0.144152 0.114952,0.320339 -0.06781,0.259314 0.02499,0.320339 0.487173,0.320339 0.46218,0 0.554986,-0.06102 0.487173,-0.320339 z"
     id="path5226"
     inkscape:connector-curvature="0" /><path
     style="fill:#ff0000"
     d="m 19.729718,15.90709 c -0.57838,-0.882719 -0.233707,-1.532688 2.345002,-4.422104 1.307802,-1.465379 2.377822,-2.7651852 2.377822,-2.888458 0,-0.4505951 -0.568713,-0.6960009 -1.559197,-0.6728105 -1.344816,0.031486 -1.804364,0.4036939 -2.332615,1.8892855 l -0.421474,1.185302 -1.573824,0 -1.573823,0 0.719692,-2.0911016 c 1.139254,-3.3101562 0.960678,-3.1220558 5.588884,-5.8869809 l 3.029845,-1.810053 2.798544,0 2.798545,0 0,2.618887 0,2.6188871 -0.845339,0.8573341 c -0.526529,0.5339999 -0.950311,1.1739261 -1.123675,1.6967909 -0.262766,0.7924983 -0.446939,0.9613695 -3.292373,3.0188334 -4.125784,2.983253 -6.103057,4.316386 -6.401967,4.316386 -0.138693,0 -0.379014,-0.193589 -0.534047,-0.430198 z"
     id="path5228"
     inkscape:connector-curvature="0" /><path
     style="fill:#ff0000"
     d="m 34.067736,9.7323966 c -0.24194,-0.096553 -0.500989,-0.2716672 -0.575665,-0.3891432 -0.07468,-0.1174757 -0.137,-2.103193 -0.138498,-4.4127047 -0.0025,-3.8440405 0.02479,-4.22401771 0.322728,-4.49364413 0.282239,-0.25542253 0.849385,-0.29453169 4.271187,-0.29453169 l 3.945732,0 0,4.89406782 0,4.8940678 -3.692796,-0.011281 c -2.031038,-0.0062 -3.890748,-0.090278 -4.132688,-0.1868313 z"
     id="path5230"
     inkscape:connector-curvature="0" /></svg>