<?xml version="1.0" encoding="UTF-8" standalone="no"?>
<!-- Generator: Adobe Illustrator 16.0.4, SVG Export Plug-In . SVG Version: 6.00 Build 0)  -->

<svg
   xmlns:ns="&amp;ns_sfw;"
   xmlns:dc="http://purl.org/dc/elements/1.1/"
   xmlns:cc="http://creativecommons.org/ns#"
   xmlns:rdf="http://www.w3.org/1999/02/22-rdf-syntax-ns#"
   xmlns:svg="http://www.w3.org/2000/svg"
   xmlns="http://www.w3.org/2000/svg"
   xmlns:xlink="http://www.w3.org/1999/xlink"
   xmlns:sodipodi="http://sodipodi.sourceforge.net/DTD/sodipodi-0.dtd"
   xmlns:inkscape="http://www.inkscape.org/namespaces/inkscape"
   version="1.1"
   id="Layer_1"
   x="0px"
   y="0px"
   width="48.759px"
   height="42px"
   viewBox="0 0 48.759 42"
   enable-background="new 0 0 48.759 42"
   xml:space="preserve"
   inkscape:version="0.91 r13725"
   sodipodi:docname="icons-planning.svg"><defs
     id="defs4808" /><sodipodi:namedview
     pagecolor="#ffffff"
     bordercolor="#666666"
     borderopacity="1"
     objecttolerance="10"
     gridtolerance="10"
     guidetolerance="10"
     inkscape:pageopacity="0"
     inkscape:pageshadow="2"
     inkscape:window-width="1280"
     inkscape:window-height="751"
     id="namedview4806"
     showgrid="false"
     inkscape:zoom="7.9465333"
     inkscape:cx="-3.5068662"
     inkscape:cy="29.287885"
     inkscape:window-x="0"
     inkscape:window-y="1"
     inkscape:window-maximized="1"
     inkscape:current-layer="Layer_1" /><metadata
     id="metadata4746"><ns:sfw><ns:slices /><ns:sliceSourceBounds
         width="1387.212"
         height="339.173"
         bottomLeftOrigin="true"
         y="-586"
         x="-147" /></ns:sfw><rdf:RDF><cc:Work
         rdf:about=""><dc:format>image/svg+xml</dc:format><dc:type
           rdf:resource="http://purl.org/dc/dcmitype/StillImage" /></cc:Work></rdf:RDF></metadata><g
     id="g4748"><g
       id="g4750"><defs
         id="defs4752"><rect
           id="SVGID_3_"
           y="0"
           width="48.758"
           height="42" /></defs><clipPath
         id="SVGID_2_"><use
           xlink:href="#SVGID_3_"
           overflow="visible"
           id="use4756" /></clipPath><path
         clip-path="url(#SVGID_2_)"
         fill="#20c3c4"
         d="M17.678,30.173c-0.076,0.266-0.354,0.418-0.619,0.343    c-0.264-0.075-0.418-0.352-0.341-0.617l0.289-1.009l-2.267-0.648l-0.289,1.009c-0.078,0.265-0.354,0.419-0.617,0.342    c-0.266-0.075-0.42-0.351-0.342-0.616l0.287-1.01l-1.615-0.461c-0.266-0.077-0.418-0.353-0.342-0.618    c0.075-0.265,0.352-0.419,0.617-0.343l1.616,0.462l0.636-2.218c0.076-0.265,0.354-0.418,0.617-0.343    c0.266,0.076,0.419,0.353,0.344,0.618l-0.638,2.218l2.267,0.648l0.106-0.368c0.076-0.264,0.353-0.419,0.617-0.342    c0.266,0.075,0.419,0.352,0.343,0.617L17.678,30.173z M22.066,30.433l-9.88-10.73c-0.139-0.149-0.348-0.201-0.534-0.131    c-0.191,0.065-0.322,0.239-0.332,0.44l-0.588,10.139c-0.013,0.237,0.143,0.446,0.361,0.509c0.035,0.011,0.072,0.018,0.109,0.018    l10.467,0.595c0.201,0.012,0.392-0.101,0.48-0.285C22.236,30.801,22.203,30.583,22.066,30.433"
         id="path4758"
         style="fill:#ff0000" /></g><rect
       x="25.284"
       y="14.773"
       transform="matrix(0.9614 0.2753 -0.2753 0.9614 5.4256 -6.6679)"
       fill="#20c3c4"
       width="2.359"
       height="2.437"
       id="rect4760" /><rect
       x="26.23"
       y="11.47"
       transform="matrix(-0.9614 -0.2752 0.2752 -0.9614 50.2699 32.4296)"
       fill="#20c3c4"
       width="2.36"
       height="2.437"
       id="rect4762" /><polygon
       fill="#20c3c4"
       points="26.986,18.448 24.719,17.799 24.046,20.14 26.314,20.788  "
       id="polygon4764" /><rect
       x="23.952"
       y="7.246"
       transform="matrix(-0.9615 -0.2747 0.2747 -0.9615 46.9696 23.5037)"
       fill="#20c3c4"
       width="2.357"
       height="2.435"
       id="rect4766" /><rect
       x="23.003"
       y="10.547"
       transform="matrix(-0.9614 -0.2752 0.2752 -0.9614 44.1924 29.7309)"
       fill="#20c3c4"
       width="2.357"
       height="2.437"
       id="rect4768" /><rect
       x="27.179"
       y="8.168"
       transform="matrix(0.9615 0.2747 -0.2747 0.9615 3.6685 -7.428)"
       fill="#20c3c4"
       width="2.357"
       height="2.435"
       id="rect4770" /><rect
       x="30.406"
       y="9.09"
       transform="matrix(0.9614 0.2753 -0.2753 0.9614 4.0589 -8.2976)"
       fill="#20c3c4"
       width="2.359"
       height="2.436"
       id="rect4772" /><rect
       x="29.46"
       y="12.393"
       transform="matrix(-0.9616 -0.2746 0.2746 -0.9616 56.363 35.1107)"
       fill="#20c3c4"
       width="2.358"
       height="2.437"
       id="rect4774" /><rect
       x="28.512"
       y="15.696"
       transform="matrix(-0.9615 -0.2749 0.2749 -0.9615 53.5885 41.3377)"
       fill="#20c3c4"
       width="2.358"
       height="2.435"
       id="rect4776" /><rect
       x="27.565"
       y="18.998"
       transform="matrix(0.9614 0.275 -0.275 0.9614 6.669 -7.1262)"
       fill="#20c3c4"
       width="2.358"
       height="2.435"
       id="rect4778" /><rect
       x="19.777"
       y="9.625"
       transform="matrix(0.9616 0.2746 -0.2746 0.9616 3.7823 -5.337)"
       fill="#20c3c4"
       width="2.358"
       height="2.436"
       id="rect4780" /><rect
       x="14.272"
       y="4.476"
       transform="matrix(-0.9614 -0.2752 0.2752 -0.9614 28.7373 15.4192)"
       fill="#20c3c4"
       width="2.357"
       height="2.436"
       id="rect4782" /><rect
       x="11.043"
       y="3.555"
       transform="matrix(-0.9615 -0.2748 0.2748 -0.9615 22.6637 12.7224)"
       fill="#20c3c4"
       width="2.359"
       height="2.437"
       id="rect4784" /><g
       id="g4786"><defs
         id="defs4788"><rect
           id="SVGID_5_"
           y="0"
           width="48.758"
           height="42" /></defs><clipPath
         id="SVGID_4_"><use
           xlink:href="#SVGID_5_"
           overflow="visible"
           id="use4792" /></clipPath><path
         clip-path="url(#SVGID_4_)"
         fill="#20c3c4"
         d="M39.354,36.119c-0.66-1.305-2.078-2.523-4.235-3.141    c-2.315-0.66-4.03-0.64-4.979-0.533l8.676-30.249c0.633-0.112,2.408-0.302,5.007,0.44c3.272,0.938,4.229,3.16,3.861,4.439    L39.354,36.119z M4.448,35.909L6.233,5.083l3.78,4.107l-1.117,0.996c-0.207,0.185-0.225,0.5-0.041,0.706    c0.064,0.074,0.146,0.123,0.234,0.148c0.16,0.045,0.338,0.011,0.471-0.108l1.13-1.008l1.278,1.39l-1.123,1.003    c-0.207,0.184-0.225,0.5-0.041,0.705c0.066,0.074,0.148,0.124,0.234,0.147c0.159,0.046,0.34,0.011,0.471-0.106l1.137-1.015    l1.279,1.392l-1.129,1.007c-0.207,0.185-0.225,0.501-0.041,0.707c0.065,0.072,0.147,0.122,0.234,0.146    c0.159,0.046,0.338,0.011,0.471-0.107l1.141-1.019l1.279,1.391l-1.135,1.013c-0.207,0.183-0.224,0.5-0.039,0.705    c0.064,0.074,0.146,0.122,0.233,0.147c0.159,0.046,0.337,0.012,0.472-0.107l1.146-1.024l1.28,1.392l-1.142,1.017    c-0.206,0.183-0.224,0.5-0.041,0.706c0.065,0.073,0.147,0.122,0.233,0.146c0.16,0.045,0.34,0.012,0.473-0.105l1.152-1.029    l1.279,1.392l-1.146,1.021c-0.207,0.185-0.225,0.5-0.04,0.707c0.065,0.072,0.146,0.121,0.233,0.146    c0.16,0.046,0.338,0.011,0.471-0.107l1.158-1.033l1.279,1.39l-1.152,1.027c-0.205,0.185-0.223,0.499-0.039,0.705    c0.064,0.075,0.146,0.122,0.234,0.148c0.159,0.045,0.338,0.011,0.471-0.107l1.164-1.039l1.279,1.391l-1.156,1.031    c-0.207,0.185-0.225,0.5-0.041,0.705c0.064,0.073,0.147,0.123,0.233,0.148c0.159,0.045,0.339,0.011,0.472-0.108l1.168-1.042    l1.278,1.391l-1.161,1.035c-0.207,0.186-0.226,0.5-0.041,0.706c0.064,0.075,0.146,0.123,0.233,0.148    c0.16,0.045,0.338,0.011,0.472-0.107l1.174-1.049l1.279,1.389l-1.168,1.044c-0.208,0.185-0.224,0.5-0.04,0.704    c0.065,0.074,0.147,0.122,0.233,0.148c0.16,0.047,0.34,0.011,0.472-0.108l1.179-1.052l1.358,1.475l-0.692,2.414    c-0.051,0.176-0.002,0.363,0.127,0.491c0.129,0.129,0.316,0.176,0.494,0.126c0.012-0.004,1.024-0.271,2.774-0.095l3.918,4.255    L4.448,35.909z M3.596,30.57c-0.073,0.264-0.35,0.417-0.616,0.342c-0.265-0.076-0.418-0.354-0.343-0.619l0.545-1.896    c0.076-0.265,0.353-0.419,0.617-0.344c0.266,0.076,0.418,0.353,0.343,0.618L3.596,30.57z M10.604,2.522    c0.076-0.266,0.352-0.42,0.617-0.344l22.59,6.459c0.264,0.077,0.418,0.354,0.342,0.618l-5.04,17.573    c-0.075,0.266-0.353,0.42-0.618,0.344c-0.265-0.077-0.418-0.353-0.343-0.618l1.114-3.883L27,22.024l-0.564,1.964    c-0.077,0.265-0.352,0.419-0.617,0.343s-0.419-0.354-0.343-0.618l0.563-1.964l-2.748-0.785c-0.265-0.076-0.418-0.352-0.342-0.618    l0.809-2.821l-2.267-0.648l-0.394,1.375c-0.077,0.265-0.354,0.419-0.619,0.343c-0.266-0.076-0.418-0.352-0.342-0.617l0.394-1.375    l-2.746-0.785c-0.265-0.076-0.418-0.354-0.342-0.617l0.81-2.822l-2.269-0.649l-0.254,0.89c-0.076,0.265-0.353,0.42-0.618,0.344    s-0.418-0.353-0.342-0.618l1.201-4.192l-2.266-0.648l-0.652,2.279c-0.076,0.265-0.354,0.42-0.618,0.344    c-0.267-0.077-0.419-0.354-0.343-0.619l0.652-2.279l-2.648-0.757C10.06,6.467,10.026,6.47,9.992,6.461    C9.728,6.385,9.573,6.109,9.649,5.842L10.604,2.522z M44.096,1.676c-3.584-1.024-5.731-0.41-5.822-0.384    c-0.163,0.049-0.29,0.178-0.337,0.343l-1.72,5.991L9.615,0.019C9.351-0.056,9.074,0.097,8.998,0.364L7.633,5.126L6.17,3.538    c-0.137-0.148-0.349-0.201-0.535-0.13c-0.19,0.065-0.319,0.241-0.332,0.44L4.621,15.623L0.02,31.666    c-0.076,0.265,0.078,0.541,0.343,0.618l3.241,0.926l-0.182,3.142c-0.014,0.238,0.142,0.446,0.358,0.511    c0.036,0.01,0.073,0.016,0.111,0.017l15.647,0.888l13.129,3.754c5.707,1.633,6.545-1.294,6.996-2.867l7.826-27.282l1.153-4.021    C49.213,5.364,47.668,2.699,44.096,1.676"
         id="path4794"
         style="fill:#ff0000" /></g><rect
       x="16.549"
       y="8.702"
       transform="matrix(-0.9616 -0.2746 0.2746 -0.9616 32.0518 24.329)"
       fill="#20c3c4"
       width="2.358"
       height="2.439"
       id="rect4796" /><rect
       x="17.498"
       y="5.4"
       transform="matrix(0.9615 0.2749 -0.2749 0.9615 2.5391 -4.88)"
       fill="#20c3c4"
       width="2.358"
       height="2.435"
       id="rect4798" /><rect
       x="20.724"
       y="6.322"
       transform="matrix(0.9615 0.2749 -0.2749 0.9615 2.9172 -5.7315)"
       fill="#20c3c4"
       width="2.358"
       height="2.435"
       id="rect4800" /><rect
       x="22.058"
       y="13.85"
       transform="matrix(0.9615 0.2748 -0.2748 0.9615 5.0347 -5.8048)"
       fill="#20c3c4"
       width="2.356"
       height="2.435"
       id="rect4802" /><rect
       x="18.831"
       y="12.929"
       transform="matrix(-0.9614 -0.275 0.275 -0.9614 35.3558 33.2509)"
       fill="#20c3c4"
       width="2.358"
       height="2.434"
       id="rect4804" /></g><path
     style="fill:#ff0000"
     d="m 28.143482,21.266463 c -0.380485,-0.106536 -0.667372,-0.298376 -0.667372,-0.44627 0,-0.334572 0.382643,-1.684746 0.525834,-1.855433 0.06045,-0.07205 0.57136,2.7e-4 1.135366,0.160716 0.764869,0.217586 0.999855,0.358458 0.924687,0.55434 -0.05543,0.144442 -0.188925,0.612692 -0.296663,1.040555 -0.215216,0.854701 -0.353445,0.901244 -1.621852,0.546092 z"
     id="path4810"
     inkscape:connector-curvature="0" /><path
     style="fill:#ff0000"
     d="m 28.054499,21.136827 c -0.451262,-0.181385 -0.515006,-0.680444 -0.201707,-1.579175 0.181867,-0.521705 0.245998,-0.559758 0.756356,-0.448799 1.181981,0.256981 1.403326,0.406911 1.286705,0.871566 -0.277281,1.104775 -0.445038,1.340109 -0.947118,1.328639 -0.271597,-0.0062 -0.674003,-0.08371 -0.894236,-0.172231 z"
     id="path4812"
     inkscape:connector-curvature="0" /><path
     style="fill:#ff0000"
     d=""
     id="path4814"
     inkscape:connector-curvature="0" /><path
     style="fill:#ff0000"
     d="m 29.344754,17.998453 c -0.489407,-0.149419 -0.916012,-0.296823 -0.948012,-0.327565 -0.032,-0.03074 0.07558,-0.532627 0.239074,-1.115301 l 0.297255,-1.059408 0.917706,0.262848 c 0.504738,0.144567 0.976657,0.316688 1.048709,0.38249 0.144649,0.132104 -0.382408,2.160829 -0.556226,2.141003 -0.05977,-0.0068 -0.5091,-0.134648 -0.998506,-0.284067 z"
     id="path4816"
     inkscape:connector-curvature="0" /><path
     style="fill:#ff0000"
     d="m 30.056618,14.659585 c -0.391525,-0.122684 -0.710408,-0.29592 -0.708629,-0.384968 0.0082,-0.409997 0.491112,-2.030549 0.605095,-2.030549 0.458522,0 1.971693,0.586414 1.969476,0.76325 -0.0015,0.11856 -0.109999,0.575945 -0.241142,1.016411 -0.268562,0.902015 -0.493935,0.990214 -1.6248,0.635856 z"
     id="path4818"
     inkscape:connector-curvature="0" /><path
     style="fill:#ff0000"
     d="m 31.201687,11.376058 -0.990524,-0.28877 0.324288,-1.0945287 0.324288,-1.0945288 0.844202,0.2507316 c 0.464311,0.1379025 0.937087,0.2847958 1.050613,0.3264296 0.151916,0.055713 0.134822,0.325466 -0.06475,1.0217633 -0.149139,0.520336 -0.322108,0.995927 -0.384376,1.05687 -0.06227,0.06094 -0.558951,-0.01914 -1.103739,-0.177967 z"
     id="path4820"
     inkscape:connector-curvature="0" /><path
     style="fill:#ff0000"
     d="m 28.010008,10.492661 c -0.538348,-0.146073 -0.995555,-0.275645 -1.016018,-0.287938 -0.06838,-0.04108 0.591129,-2.1429385 0.670679,-2.1374642 0.04312,0.00297 0.529868,0.1137023 1.081675,0.2460788 L 29.74963,8.5540221 29.475264,9.553706 c -0.150902,0.549826 -0.322084,1.045777 -0.380404,1.102113 -0.05832,0.05634 -0.546505,-0.01709 -1.084852,-0.163158 z"
     id="path4822"
     inkscape:connector-curvature="0" /><path
     style="fill:#ff0000"
     d="m 24.539669,9.4985684 c -0.391525,-0.1226847 -0.709437,-0.2558781 -0.70647,-0.2959852 0.01985,-0.2683323 0.508617,-2.1195324 0.559615,-2.1195324 0.03478,0 0.531356,0.1301462 1.10349,0.2892137 l 1.040244,0.2892136 -0.296372,1.0010406 c -0.33158,1.1199576 -0.511762,1.2085436 -1.700507,0.8360497 z"
     id="path4824"
     inkscape:connector-curvature="0" /><path
     style="fill:#ff0000"
     d="M 21.365505,8.5735305 C 20.70982,8.3720947 20.530487,8.2424632 20.612356,8.0291144 c 0.0591,-0.1540146 0.195605,-0.6300966 0.303342,-1.0579602 0.107738,-0.4278636 0.29224,-0.7779339 0.410006,-0.7779339 0.366604,0 1.879219,0.5604575 1.879219,0.6962926 0,0.46409 -0.586556,1.9709639 -0.76325,1.9608033 -0.11856,-0.00682 -0.602836,-0.1313712 -1.076168,-0.2767857 z"
     id="path4826"
     inkscape:connector-curvature="0" /><path
     style="fill:#ff0000"
     d="m 24.959502,20.33146 -0.82593,-0.256335 0.2678,-0.934597 c 0.14729,-0.514027 0.328092,-1 0.401781,-1.079939 0.07369,-0.07994 0.576008,-0.01684 1.116263,0.140214 l 0.982282,0.285557 -0.301653,1.016145 c -0.172062,0.579606 -0.411837,1.030997 -0.558133,1.050717 -0.141064,0.01901 -0.628149,-0.08078 -1.08241,-0.221762 z"
     id="path4830"
     inkscape:connector-curvature="0" /><path
     style="fill:#ff0000"
     d="m 26.096872,17.100987 c -0.513877,-0.151462 -0.934322,-0.352909 -0.934322,-0.44766 0,-0.09475 0.123769,-0.598025 0.275042,-1.118386 l 0.275042,-0.94611 1.015212,0.280865 c 0.558367,0.154476 1.038401,0.297444 1.066741,0.317706 0.09217,0.0659 -0.551639,2.218118 -0.659096,2.203327 -0.05736,-0.0079 -0.524742,-0.13828 -1.038619,-0.289742 z"
     id="path4832"
     inkscape:connector-curvature="0" /><path
     style="fill:#ff0000"
     d="m 22.626533,16.105446 c -0.758677,-0.212429 -0.768746,-0.252024 -0.389158,-1.530235 0.213514,-0.718982 0.343003,-0.911988 0.556812,-0.829942 0.153228,0.0588 0.633154,0.196187 1.066501,0.305305 0.583046,0.146813 0.761342,0.267616 0.685743,0.464621 -0.05619,0.146424 -0.190308,0.616296 -0.298046,1.044159 -0.215216,0.854701 -0.353446,0.901244 -1.621852,0.546092 z"
     id="path4834"
     inkscape:connector-curvature="0" /><path
     style="fill:#ff0000"
     d="m 26.888307,13.736254 c -0.660259,-0.202911 -0.834944,-0.331699 -0.767703,-0.565994 0.596726,-2.079225 0.452437,-1.934373 1.601807,-1.608055 0.402882,0.114382 0.800586,0.266544 0.883787,0.338139 0.212991,0.183278 -0.381216,2.126061 -0.645653,2.110989 -0.119618,-0.0068 -0.602124,-0.130603 -1.072238,-0.275079 z"
     id="path4836"
     inkscape:connector-curvature="0" /><path
     style="fill:#ff0000"
     d=""
     id="path4838"
     inkscape:connector-curvature="0" /><path
     style="fill:#ff0000"
     d="m 23.757467,12.853169 c -0.430211,-0.135046 -0.81378,-0.277117 -0.852376,-0.315713 -0.0386,-0.0386 0.06301,-0.549195 0.225781,-1.134665 l 0.295954,-1.064491 0.912354,0.261279 c 0.501794,0.143704 0.971305,0.315119 1.043356,0.380921 0.189328,0.172907 -0.409973,2.156743 -0.645208,2.135803 -0.108713,-0.0097 -0.54965,-0.128088 -0.979861,-0.263134 z"
     id="path4840"
     inkscape:connector-curvature="0" /><path
     style="fill:#ff0000"
     d="m 20.624415,11.947605 c -0.489407,-0.149419 -0.916012,-0.296823 -0.948012,-0.327564 -0.032,-0.03074 0.07633,-0.535267 0.24072,-1.121167 l 0.298901,-1.0652738 1.005043,0.2779719 c 0.552773,0.1528846 1.028231,0.2945509 1.056571,0.3148129 0.09186,0.06568 -0.551432,2.218083 -0.659096,2.205287 -0.05736,-0.0068 -0.504721,-0.134647 -0.994127,-0.284067 z"
     id="path4842"
     inkscape:connector-curvature="0" /><path
     style="fill:#ff0000"
     d="m 19.502595,15.207528 c -0.421238,-0.112742 -0.764783,-0.28507 -0.763433,-0.382952 0.0054,-0.392804 0.416919,-1.875065 0.542015,-1.952378 0.07354,-0.04545 0.575476,0.04303 1.115413,0.196633 l 0.981704,0.27927 -0.281248,1.049678 c -0.306018,1.142128 -0.322089,1.15029 -1.594451,0.809749 z"
     id="path4844"
     inkscape:connector-curvature="0" /><path
     style="fill:#ff0000"
     d="m 17.376533,11.040827 c -0.513877,-0.149589 -0.934322,-0.365986 -0.934322,-0.480882 0,-0.114896 0.125197,-0.6304843 0.278215,-1.1457513 0.213514,-0.7189816 0.343003,-0.9119873 0.556811,-0.8299412 0.153229,0.058799 0.633155,0.1961863 1.066502,0.3053044 0.443808,0.1117522 0.755759,0.2852255 0.7143,0.3972163 -0.04048,0.109351 -0.180235,0.6192649 -0.310563,1.1331418 -0.130328,0.513877 -0.281884,0.925 -0.336791,0.913607 -0.05491,-0.01139 -0.520275,-0.143106 -1.034152,-0.292695 z"
     id="path4846"
     inkscape:connector-curvature="0" /><path
     style="fill:#ff0000"
     d="M 18.37689,7.7572013 C 17.892402,7.6177069 17.449643,7.4597584 17.39298,7.4062049 c -0.105417,-0.099633 0.366807,-1.8635438 0.553817,-2.068687 0.06063,-0.066513 0.524244,0.00622 1.118926,0.1755521 0.797085,0.2269595 1.00304,0.3325451 0.957926,0.491092 -0.430058,1.5113782 -0.602443,2.0250182 -0.67682,2.0166658 -0.04898,-0.0055 -0.485451,-0.1241321 -0.969939,-0.2636265 z"
     id="path4850"
     inkscape:connector-curvature="0" /><path
     style="fill:#ff0000"
     d="M 15.119162,6.8195308 C 14.573237,6.6592106 14.109034,6.5105018 14.0876,6.489067 c -0.03889,-0.038886 0.541031,-2.1136278 0.610089,-2.1826851 0.0526,-0.052606 1.948285,0.5044107 2.044668,0.6007946 0.08553,0.085529 -0.407853,2.0007429 -0.548435,2.1289242 -0.04519,0.041207 -0.528836,-0.05625 -1.07476,-0.2165699 z"
     id="path4852"
     inkscape:connector-curvature="0" /><path
     style="fill:#ff0000"
     d="M 11.701998,5.846876 10.815794,5.576928 11.118788,4.5072791 c 0.166647,-0.5883068 0.319708,-1.0881845 0.340136,-1.1108393 0.03708,-0.041125 1.936739,0.4657916 2.092278,0.5583174 0.04516,0.026865 0.0011,0.3179015 -0.09792,0.6467469 -0.09902,0.3288454 -0.237248,0.8102575 -0.307184,1.0698046 -0.148167,0.5498814 -0.196134,0.555713 -1.444103,0.1755673 z"
     id="path4854"
     inkscape:connector-curvature="0" /></svg>