<?xml version="1.0" encoding="UTF-8" standalone="no"?>
<!-- Generator: Adobe Illustrator 16.0.4, SVG Export Plug-In . SVG Version: 6.00 Build 0)  -->

<svg
   xmlns:ns="&amp;ns_sfw;"
   xmlns:dc="http://purl.org/dc/elements/1.1/"
   xmlns:cc="http://creativecommons.org/ns#"
   xmlns:rdf="http://www.w3.org/1999/02/22-rdf-syntax-ns#"
   xmlns:svg="http://www.w3.org/2000/svg"
   xmlns="http://www.w3.org/2000/svg"
   xmlns:sodipodi="http://sodipodi.sourceforge.net/DTD/sodipodi-0.dtd"
   xmlns:inkscape="http://www.inkscape.org/namespaces/inkscape"
   version="1.1"
   id="Layer_1"
   x="0px"
   y="0px"
   width="42px"
   height="42px"
   viewBox="0 0 42 42"
   enable-background="new 0 0 42 42"
   xml:space="preserve"
   inkscape:version="0.91 r13725"
   sodipodi:docname="icons-economy.svg"><defs
     id="defs5380" /><sodipodi:namedview
     pagecolor="#ffffff"
     bordercolor="#666666"
     borderopacity="1"
     objecttolerance="10"
     gridtolerance="10"
     guidetolerance="10"
     inkscape:pageopacity="0"
     inkscape:pageshadow="2"
     inkscape:window-width="1280"
     inkscape:window-height="751"
     id="namedview5378"
     showgrid="false"
     inkscape:zoom="5.6190476"
     inkscape:cx="21"
     inkscape:cy="21"
     inkscape:window-x="0"
     inkscape:window-y="1"
     inkscape:window-maximized="1"
     inkscape:current-layer="Layer_1" /><metadata
     id="metadata5370"><ns:sfw><ns:slices /><ns:sliceSourceBounds
         width="1387.212"
         height="339.173"
         bottomLeftOrigin="true"
         y="-586"
         x="-147" /></ns:sfw><rdf:RDF><cc:Work
         rdf:about=""><dc:format>image/svg+xml</dc:format><dc:type
           rdf:resource="http://purl.org/dc/dcmitype/StillImage" /></cc:Work></rdf:RDF></metadata><g
     id="g5372"><polygon
       fill="#20c3c4"
       points="0,0 0,42 42,42 42,37.381 4.62,37.381 4.62,0  "
       id="polygon5374" /><polygon
       fill="#20c3c4"
       points="29.833,9.916 33.049,12.387 26.339,20.471 18.811,14.496 8.039,27.06 10.736,29.372 19.277,19.404   26.848,25.414 35.861,14.578 39.061,17.064 39.061,7.588  "
       id="polygon5376" /></g><path
     style="fill:#ff0000"
     d="m 0.07118644,21.05339 0,-20.91101712 2.22457626,0 2.2245763,0 0,18.68644112 0,18.68644 18.686441,0 18.68644,0 0,2.224577 0,2.224576 -20.911017,0 -20.91101656,0 0,-20.911017 z"
     id="path5382"
     inkscape:connector-curvature="0" /><path
     style="fill:#ff0000"
     d="M 9.4371374,28.15845 C 8.7884067,27.604651 8.2578117,27.100858 8.2580374,27.038908 8.2584565,26.923849 18.661375,14.735268 18.807959,14.67809 c 0.04439,-0.01731 1.698484,1.249876 3.675771,2.815978 1.977288,1.566101 3.701038,2.847457 3.830557,2.847457 0.236344,0 6.680628,-7.653136 6.680628,-7.933815 0,-0.0823 -0.647143,-0.651264 -1.438098,-1.264364 -1.201479,-0.931316 -1.38449,-1.137701 -1.112288,-1.2543495 0.179196,-0.076791 2.18778,-0.6124896 4.463522,-1.1904405 l 4.137712,-1.0508199 0,4.6117249 c 0,2.536449 -0.02732,4.611725 -0.06071,4.611725 -0.03339,0 -0.729016,-0.522256 -1.545833,-1.160569 -0.816818,-0.638314 -1.543003,-1.138843 -1.613748,-1.112288 -0.07074,0.02656 -1.985853,2.290654 -4.255798,5.031332 -2.269945,2.740678 -4.272019,5.133652 -4.449053,5.317721 -0.313325,0.325776 -0.419541,0.257202 -3.997007,-2.580509 -2.021319,-1.603348 -3.745211,-2.915178 -3.830869,-2.915178 -0.08566,0 -2.007461,2.162288 -4.270672,4.805085 -2.263211,2.642796 -4.180291,4.828369 -4.260177,4.85683 -0.07988,0.02846 -0.676026,-0.401364 -1.3247566,-0.95516 z"
     id="path5384"
     inkscape:connector-curvature="0" /></svg>