<?xml version="1.0" encoding="UTF-8" standalone="no"?>
<!-- Generator: Adobe Illustrator 16.0.4, SVG Export Plug-In . SVG Version: 6.00 Build 0)  -->

<svg
   xmlns:ns="&amp;ns_sfw;"
   xmlns:dc="http://purl.org/dc/elements/1.1/"
   xmlns:cc="http://creativecommons.org/ns#"
   xmlns:rdf="http://www.w3.org/1999/02/22-rdf-syntax-ns#"
   xmlns:svg="http://www.w3.org/2000/svg"
   xmlns="http://www.w3.org/2000/svg"
   xmlns:xlink="http://www.w3.org/1999/xlink"
   xmlns:sodipodi="http://sodipodi.sourceforge.net/DTD/sodipodi-0.dtd"
   xmlns:inkscape="http://www.inkscape.org/namespaces/inkscape"
   version="1.1"
   id="Layer_1"
   x="0px"
   y="0px"
   width="58.912px"
   height="42px"
   viewBox="0 0 58.912 42"
   enable-background="new 0 0 58.912 42"
   xml:space="preserve"
   inkscape:version="0.91 r13725"
   sodipodi:docname="icons-education.svg"><defs
     id="defs5320" /><sodipodi:namedview
     pagecolor="#ffffff"
     bordercolor="#666666"
     borderopacity="1"
     objecttolerance="10"
     gridtolerance="10"
     guidetolerance="10"
     inkscape:pageopacity="0"
     inkscape:pageshadow="2"
     inkscape:window-width="1280"
     inkscape:window-height="751"
     id="namedview5318"
     showgrid="false"
     inkscape:zoom="5.2620859"
     inkscape:cx="29.455999"
     inkscape:cy="21"
     inkscape:window-x="0"
     inkscape:window-y="1"
     inkscape:window-maximized="1"
     inkscape:current-layer="Layer_1" /><metadata
     id="metadata5302"><ns:sfw><ns:slices /><ns:sliceSourceBounds
         width="1387.212"
         height="339.173"
         bottomLeftOrigin="true"
         y="-586"
         x="-147" /></ns:sfw><rdf:RDF><cc:Work
         rdf:about=""><dc:format>image/svg+xml</dc:format><dc:type
           rdf:resource="http://purl.org/dc/dcmitype/StillImage" /></cc:Work></rdf:RDF></metadata><g
     id="g5304"><g
       id="g5306"><defs
         id="defs5308"><rect
           id="SVGID_29_"
           width="58.912"
           height="42" /></defs><clipPath
         id="SVGID_2_"><use
           xlink:href="#SVGID_29_"
           overflow="visible"
           id="use5312" /></clipPath><path
         clip-path="url(#SVGID_2_)"
         fill="#20c3c4"
         d="M58.912,8.729L26.183,0L0,14.363l7.871,2.709    c0.047,1.084,0.107,2.904,0.108,5.094C6.832,22.557,6,23.629,6,24.91c0,1.23,0.767,2.275,1.846,2.701    c-0.145,2.744-0.424,5.58-0.938,8.025c3.273,0.184,4.91,0,4.91,0s-0.672-3.295-1.342-8.283c0.805-0.518,1.342-1.416,1.342-2.443    c0-1.27-0.818-2.34-1.953-2.736c-0.148-1.453-0.283-2.977-0.396-4.551L39.091,27.82L58.912,8.729z"
         id="path5314"
         style="fill:#ff0000" /><path
         clip-path="url(#SVGID_2_)"
         fill="#20c3c4"
         d="M44.001,25.273l-4.776,4.496L18,22c0,0-1.818,1.818-2,4.727    c-0.182,2.91,0,6.91,0,6.91s4.909-1.273,7.637,0S35.092,40.363,35.819,42c2.364-1.998,9.091-8.727,9.091-8.727    s1.462-4.895,0-7.271L44.001,25.273z"
         id="path5316" /></g></g><path
     style="fill:#ff0000"
     d="m 34.838384,40.840085 c -1.129408,-1.051395 -4.449779,-3.364796 -7.36546,-5.131734 -4.220152,-2.557462 -5.489085,-2.938071 -8.650347,-2.594617 -1.02995,0.111899 -2.085032,0.25676 -2.344625,0.321913 l -0.471989,0.118462 0.06416,-4.063104 0.06416,-4.063103 0.589986,-1.235252 c 0.324492,-0.679388 0.752079,-1.430626 0.950193,-1.669416 l 0.360208,-0.434165 10.167071,3.714409 c 5.591889,2.042926 10.361459,3.798059 10.599048,3.900298 0.387304,0.166664 0.681188,-0.04914 2.841867,-2.086846 2.316796,-2.184937 2.423826,-2.260122 2.770627,-1.946271 1.016096,0.919553 1.299688,2.928284 0.810346,5.7398 l -0.313586,1.801705 -3.650693,3.527927 c -2.007881,1.94036 -4.035522,3.878652 -4.505867,4.307318 L 35.898311,41.8268 34.838384,40.840085 Z"
     id="path5322"
     inkscape:connector-curvature="0" /></svg>